<?xml version="1.0" encoding="UTF-8"?>
<!DOCTYPE svg PUBLIC "-//W3C//DTD SVG 1.1//EN" "http://www.w3.org/Graphics/SVG/1.1/DTD/svg11.dtd">
<svg xmlns="http://www.w3.org/2000/svg" version="1.1" width="256px" height="256px" style="shape-rendering:geometricPrecision; text-rendering:geometricPrecision; image-rendering:optimizeQuality; fill-rule:evenodd; clip-rule:evenodd" xmlns:xlink="http://www.w3.org/1999/xlink">
<g><path style="opacity:0.99" fill="#042854" d="M 111.5,-0.5 C 122.167,-0.5 132.833,-0.5 143.5,-0.5C 205.602,10.9355 242.936,47.6022 255.5,109.5C 255.5,121.5 255.5,133.5 255.5,145.5C 243.167,206.5 206.5,243.167 145.5,255.5C 133.5,255.5 121.5,255.5 109.5,255.5C 47.6022,242.936 10.9355,205.602 -0.5,143.5C -0.5,132.833 -0.5,122.167 -0.5,111.5C 8.7041,57.4517 39.3708,21.6184 91.5,4C 98.2585,2.28494 104.925,0.784944 111.5,-0.5 Z"/></g>
<g><path style="opacity:1" fill="#d4d8db" d="M 70.5,74.5 C 69.8333,74.5 69.5,74.8333 69.5,75.5C 50.038,97.9634 44.538,123.63 53,152.5C 64.6005,182.759 86.4338,200.593 118.5,206C 150.774,208.111 175.941,195.944 194,169.5C 202.553,153.956 206.719,137.29 206.5,119.5C 209.351,156.638 194.351,183.805 161.5,201C 120.528,216.468 86.6946,206.968 60,172.5C 41.497,141.392 42.1636,110.726 62,80.5C 77.5302,59.3189 98.3636,48.6522 124.5,48.5C 102.99,50.2576 84.9896,58.9243 70.5,74.5 Z"/></g>
<g><path style="opacity:1" fill="#d3d7da" d="M 111.5,22.5 C 164.038,18.3391 201.871,39.6724 225,86.5C 241.176,131.955 232.343,171.788 198.5,206C 175.257,226.247 148.257,234.747 117.5,231.5C 160.676,232.668 193.842,215.334 217,179.5C 238.719,135.938 234.386,95.2714 204,57.5C 170.536,25.0956 131.702,16.5956 87.5,32C 40.4649,55.2246 19.9649,93.0579 26,145.5C 28.6678,160.343 34.1678,174.01 42.5,186.5C 41.7261,187.711 40.8928,187.711 40,186.5C 23.924,162.058 18.5907,135.391 24,106.5C 35.8621,60.344 65.0288,32.344 111.5,22.5 Z"/></g>
<g><path style="opacity:1" fill="#a4a5ad" d="M 185.5,75.5 C 186.486,79.97 186.819,84.6367 186.5,89.5C 181.833,89.5 177.167,89.5 172.5,89.5C 176.634,88.5151 180.968,88.1818 185.5,88.5C 185.5,84.1667 185.5,79.8333 185.5,75.5 Z"/></g>
<g><path style="opacity:1" fill="#f2f1f1" d="M 185.5,75.5 C 185.5,79.8333 185.5,84.1667 185.5,88.5C 180.968,88.1818 176.634,88.5151 172.5,89.5C 160.301,122.097 148.301,154.763 136.5,187.5C 131.125,187.828 125.792,187.495 120.5,186.5C 107.962,154.216 95.6288,121.883 83.5,89.5C 79.3656,88.5151 75.0323,88.1818 70.5,88.5C 70.5,84.1667 70.5,79.8333 70.5,75.5C 84.8333,75.5 99.1667,75.5 113.5,75.5C 113.5,80.1667 113.5,84.8333 113.5,89.5C 109.445,89.1758 105.445,89.5091 101.5,90.5C 110.578,114.24 119.745,137.906 129,161.5C 137.735,137.795 146.568,114.128 155.5,90.5C 151.555,89.5091 147.555,89.1758 143.5,89.5C 143.5,84.5 143.5,79.5 143.5,74.5C 157.677,74.1709 171.677,74.5042 185.5,75.5 Z"/></g>
<g><path style="opacity:1" fill="#91939e" d="M 70.5,74.5 C 85.0097,74.1707 99.3431,74.5041 113.5,75.5C 99.1667,75.5 84.8333,75.5 70.5,75.5C 70.5,79.8333 70.5,84.1667 70.5,88.5C 75.0323,88.1818 79.3656,88.5151 83.5,89.5C 78.8333,89.5 74.1667,89.5 69.5,89.5C 69.5,84.8333 69.5,80.1667 69.5,75.5C 69.5,74.8333 69.8333,74.5 70.5,74.5 Z"/></g>
</svg>
