<svg aria-roledescription="er" role="graphics-document document" viewBox="0 0 673 832" style="max-width: 100%;" xmlns="http://www.w3.org/2000/svg" width="100%" id="graph-div" height="100%" xmlns:xlink="http://www.w3.org/1999/xlink"><style>@import url("https://cdnjs.cloudflare.com/ajax/libs/font-awesome/6.4.2/css/all.min.css");'</style><style>#graph-div{font-family:"trebuchet ms",verdana,arial,sans-serif;font-size:16px;fill:#ccc;}#graph-div .error-icon{fill:#a44141;}#graph-div .error-text{fill:#ddd;stroke:#ddd;}#graph-div .edge-thickness-normal{stroke-width:2px;}#graph-div .edge-thickness-thick{stroke-width:3.5px;}#graph-div .edge-pattern-solid{stroke-dasharray:0;}#graph-div .edge-pattern-dashed{stroke-dasharray:3;}#graph-div .edge-pattern-dotted{stroke-dasharray:2;}#graph-div .marker{fill:lightgrey;stroke:lightgrey;}#graph-div .marker.cross{stroke:lightgrey;}#graph-div svg{font-family:"trebuchet ms",verdana,arial,sans-serif;font-size:16px;}#graph-div .entityBox{fill:#1f2020;stroke:#81B1DB;}#graph-div .attributeBoxOdd{fill:hsl(0, 0%, 32%);stroke:#81B1DB;}#graph-div .attributeBoxEven{fill:hsl(0, 0%, 22%);stroke:#81B1DB;}#graph-div .relationshipLabelBox{fill:hsl(20, 1.5873015873%, 12.3529411765%);opacity:0.7;background-color:hsl(20, 1.5873015873%, 12.3529411765%);}#graph-div .relationshipLabelBox rect{opacity:0.5;}#graph-div .relationshipLine{stroke:lightgrey;}#graph-div .entityTitleText{text-anchor:middle;font-size:18px;fill:#ccc;}#graph-div #MD_PARENT_START{fill:#f5f5f5!important;stroke:lightgrey!important;stroke-width:1;}#graph-div #MD_PARENT_END{fill:#f5f5f5!important;stroke:lightgrey!important;stroke-width:1;}#graph-div :root{--mermaid-font-family:"trebuchet ms",verdana,arial,sans-serif;}</style><g></g><defs><marker orient="auto" markerHeight="240" markerWidth="190" refY="7" refX="0" id="MD_PARENT_START"><path d="M 18,7 L9,13 L1,7 L9,1 Z"></path></marker></defs><defs><marker orient="auto" markerHeight="28" markerWidth="20" refY="7" refX="19" id="MD_PARENT_END"><path d="M 18,7 L9,13 L1,7 L9,1 Z"></path></marker></defs><defs><marker orient="auto" markerHeight="18" markerWidth="18" refY="9" refX="0" id="ONLY_ONE_START"><path d="M9,0 L9,18 M15,0 L15,18" fill="none" stroke="gray"></path></marker></defs><defs><marker orient="auto" markerHeight="18" markerWidth="18" refY="9" refX="18" id="ONLY_ONE_END"><path d="M3,0 L3,18 M9,0 L9,18" fill="none" stroke="gray"></path></marker></defs><defs><marker orient="auto" markerHeight="18" markerWidth="30" refY="9" refX="0" id="ZERO_OR_ONE_START"><circle r="6" cy="9" cx="21" fill="white" stroke="gray"></circle><path d="M9,0 L9,18" fill="none" stroke="gray"></path></marker></defs><defs><marker orient="auto" markerHeight="18" markerWidth="30" refY="9" refX="30" id="ZERO_OR_ONE_END"><circle r="6" cy="9" cx="9" fill="white" stroke="gray"></circle><path d="M21,0 L21,18" fill="none" stroke="gray"></path></marker></defs><defs><marker orient="auto" markerHeight="36" markerWidth="45" refY="18" refX="18" id="ONE_OR_MORE_START"><path d="M0,18 Q 18,0 36,18 Q 18,36 0,18 M42,9 L42,27" fill="none" stroke="gray"></path></marker></defs><defs><marker orient="auto" markerHeight="36" markerWidth="45" refY="18" refX="27" id="ONE_OR_MORE_END"><path d="M3,9 L3,27 M9,18 Q27,0 45,18 Q27,36 9,18" fill="none" stroke="gray"></path></marker></defs><defs><marker orient="auto" markerHeight="36" markerWidth="57" refY="18" refX="18" id="ZERO_OR_MORE_START"><circle r="6" cy="18" cx="48" fill="white" stroke="gray"></circle><path d="M0,18 Q18,0 36,18 Q18,36 0,18" fill="none" stroke="gray"></path></marker></defs><defs><marker orient="auto" markerHeight="36" markerWidth="57" refY="18" refX="39" id="ZERO_OR_MORE_END"><circle r="6" cy="18" cx="9" fill="white" stroke="gray"></circle><path d="M21,18 Q39,0 57,18 Q39,36 21,18" fill="none" stroke="gray"></path></marker></defs><path marker-start="url(#ONLY_ONE_START)" marker-end="url(#ZERO_OR_MORE_END)" style="stroke: gray; fill: none;" d="M343.75,154L343.75,162.333C343.75,170.667,343.75,187.333,343.75,204C343.75,220.667,343.75,237.333,343.75,245.667L343.75,254" class="er relationshipLine"></path><path marker-start="url(#ONLY_ONE_START)" marker-end="url(#ZERO_OR_MORE_END)" style="stroke: gray; fill: none;" d="M238.812,388L225.76,396.333C212.708,404.667,186.604,421.333,173.552,438C160.5,454.667,160.5,471.333,160.5,479.667L160.5,488" class="er relationshipLine"></path><path marker-start="url(#ONLY_ONE_START)" marker-end="url(#ZERO_OR_MORE_END)" style="stroke: gray; fill: none;" d="M160.5,600L160.5,608.333C160.5,616.667,160.5,633.333,160.5,650C160.5,666.667,160.5,683.333,160.5,691.667L160.5,700" class="er relationshipLine"></path><path marker-start="url(#ONLY_ONE_START)" marker-end="url(#ZERO_OR_MORE_END)" style="stroke: gray; fill: none;" d="M448.688,388L461.74,396.333C474.792,404.667,500.896,421.333,513.948,438C527,454.667,527,471.333,527,479.667L527,488" class="er relationshipLine"></path><g transform="translate(181.75,20 )" id="entity-PARTTABLE-2066264c-7051-5187-a01b-a24d8a8dfa32"><rect height="134" width="324" y="0" x="0" class="er entityBox"></rect><text transform="translate(162,12)" style="dominant-baseline: middle; text-anchor: middle; font-size: 12px;" y="0" x="0" id="text-entity-PARTTABLE-2066264c-7051-5187-a01b-a24d8a8dfa32" class="er entityLabel">PART_TABLE</text><rect height="22" width="53" y="24" x="0" class="er attributeBoxOdd"></rect><text transform="translate(5,35)" style="dominant-baseline: middle; font-size: 10.2px;" y="0" x="0" id="text-entity-PARTTABLE-2066264c-7051-5187-a01b-a24d8a8dfa32-attr-1-type" class="er entityLabel">varchar2</text><rect height="22" width="126" y="24" x="53" class="er attributeBoxOdd"></rect><text transform="translate(58,35)" style="dominant-baseline: middle; font-size: 10.2px;" y="0" x="0" id="text-entity-PARTTABLE-2066264c-7051-5187-a01b-a24d8a8dfa32-attr-1-name" class="er entityLabel">OWNER</text><rect height="22" width="145" y="24" x="179" class="er attributeBoxOdd"></rect><text transform="translate(184,35)" style="dominant-baseline: middle; font-size: 10.2px;" y="0" x="0" id="text-entity-PARTTABLE-2066264c-7051-5187-a01b-a24d8a8dfa32-attr-1-comment" class="er entityLabel">Partícionált Tábla tulajdonosa</text><rect height="22" width="53" y="46" x="0" class="er attributeBoxEven"></rect><text transform="translate(5,57)" style="dominant-baseline: middle; font-size: 10.2px;" y="0" x="0" id="text-entity-PARTTABLE-2066264c-7051-5187-a01b-a24d8a8dfa32-attr-2-type" class="er entityLabel">varchar2</text><rect height="22" width="126" y="46" x="53" class="er attributeBoxEven"></rect><text transform="translate(58,57)" style="dominant-baseline: middle; font-size: 10.2px;" y="0" x="0" id="text-entity-PARTTABLE-2066264c-7051-5187-a01b-a24d8a8dfa32-attr-2-name" class="er entityLabel">TABLE_NAME</text><rect height="22" width="145" y="46" x="179" class="er attributeBoxEven"></rect><text transform="translate(184,57)" style="dominant-baseline: middle; font-size: 10.2px;" y="0" x="0" id="text-entity-PARTTABLE-2066264c-7051-5187-a01b-a24d8a8dfa32-attr-2-comment" class="er entityLabel">Partícionált tábla neve</text><rect height="22" width="53" y="68" x="0" class="er attributeBoxOdd"></rect><text transform="translate(5,79)" style="dominant-baseline: middle; font-size: 10.2px;" y="0" x="0" id="text-entity-PARTTABLE-2066264c-7051-5187-a01b-a24d8a8dfa32-attr-3-type" class="er entityLabel">varchar2</text><rect height="22" width="126" y="68" x="53" class="er attributeBoxOdd"></rect><text transform="translate(58,79)" style="dominant-baseline: middle; font-size: 10.2px;" y="0" x="0" id="text-entity-PARTTABLE-2066264c-7051-5187-a01b-a24d8a8dfa32-attr-3-name" class="er entityLabel">PARTITIONING_TYPE</text><rect height="22" width="145" y="68" x="179" class="er attributeBoxOdd"></rect><text transform="translate(184,79)" style="dominant-baseline: middle; font-size: 10.2px;" y="0" x="0" id="text-entity-PARTTABLE-2066264c-7051-5187-a01b-a24d8a8dfa32-attr-3-comment" class="er entityLabel">P. stratégia típusa</text><rect height="22" width="53" y="90" x="0" class="er attributeBoxEven"></rect><text transform="translate(5,101)" style="dominant-baseline: middle; font-size: 10.2px;" y="0" x="0" id="text-entity-PARTTABLE-2066264c-7051-5187-a01b-a24d8a8dfa32-attr-4-type" class="er entityLabel">varchar2</text><rect height="22" width="126" y="90" x="53" class="er attributeBoxEven"></rect><text transform="translate(58,101)" style="dominant-baseline: middle; font-size: 10.2px;" y="0" x="0" id="text-entity-PARTTABLE-2066264c-7051-5187-a01b-a24d8a8dfa32-attr-4-name" class="er entityLabel">SUB_PARTITIONING_TYPE</text><rect height="22" width="145" y="90" x="179" class="er attributeBoxEven"></rect><text transform="translate(184,101)" style="dominant-baseline: middle; font-size: 10.2px;" y="0" x="0" id="text-entity-PARTTABLE-2066264c-7051-5187-a01b-a24d8a8dfa32-attr-4-comment" class="er entityLabel">Alp. stratégia típusa</text><rect height="22" width="53" y="112" x="0" class="er attributeBoxOdd"></rect><text transform="translate(5,123)" style="dominant-baseline: middle; font-size: 10.2px;" y="0" x="0" id="text-entity-PARTTABLE-2066264c-7051-5187-a01b-a24d8a8dfa32-attr-5-type" class="er entityLabel">number</text><rect height="22" width="126" y="112" x="53" class="er attributeBoxOdd"></rect><text transform="translate(58,123)" style="dominant-baseline: middle; font-size: 10.2px;" y="0" x="0" id="text-entity-PARTTABLE-2066264c-7051-5187-a01b-a24d8a8dfa32-attr-5-name" class="er entityLabel">PARTITION_COUNT</text><rect height="22" width="145" y="112" x="179" class="er attributeBoxOdd"></rect><text transform="translate(184,123)" style="dominant-baseline: middle; font-size: 10.2px;" y="0" x="0" id="text-entity-PARTTABLE-2066264c-7051-5187-a01b-a24d8a8dfa32-attr-5-comment" class="er entityLabel">Partíciók száma</text></g><g transform="translate(171.75,254 )" id="entity-TABPARTITION-9b2cf676-b706-5e90-98c7-cd464bd09d0e"><rect height="134" width="344" y="0" x="0" class="er entityBox"></rect><text transform="translate(172,12)" style="dominant-baseline: middle; text-anchor: middle; font-size: 12px;" y="0" x="0" id="text-entity-TABPARTITION-9b2cf676-b706-5e90-98c7-cd464bd09d0e" class="er entityLabel">TAB_PARTITION</text><rect height="22" width="60" y="24" x="0" class="er attributeBoxOdd"></rect><text transform="translate(5,35)" style="dominant-baseline: middle; font-size: 10.2px;" y="0" x="0" id="text-entity-TABPARTITION-9b2cf676-b706-5e90-98c7-cd464bd09d0e-attr-1-type" class="er entityLabel">VARCHAR2</text><rect height="22" width="114" y="24" x="60" class="er attributeBoxOdd"></rect><text transform="translate(65,35)" style="dominant-baseline: middle; font-size: 10.2px;" y="0" x="0" id="text-entity-TABPARTITION-9b2cf676-b706-5e90-98c7-cd464bd09d0e-attr-1-name" class="er entityLabel">TABLE_OWNER</text><rect height="22" width="170" y="24" x="174" class="er attributeBoxOdd"></rect><text transform="translate(179,35)" style="dominant-baseline: middle; font-size: 10.2px;" y="0" x="0" id="text-entity-TABPARTITION-9b2cf676-b706-5e90-98c7-cd464bd09d0e-attr-1-comment" class="er entityLabel">Tábla tulajdonosa</text><rect height="22" width="60" y="46" x="0" class="er attributeBoxEven"></rect><text transform="translate(5,57)" style="dominant-baseline: middle; font-size: 10.2px;" y="0" x="0" id="text-entity-TABPARTITION-9b2cf676-b706-5e90-98c7-cd464bd09d0e-attr-2-type" class="er entityLabel">VARCHAR2</text><rect height="22" width="114" y="46" x="60" class="er attributeBoxEven"></rect><text transform="translate(65,57)" style="dominant-baseline: middle; font-size: 10.2px;" y="0" x="0" id="text-entity-TABPARTITION-9b2cf676-b706-5e90-98c7-cd464bd09d0e-attr-2-name" class="er entityLabel">TABLE_NAME</text><rect height="22" width="170" y="46" x="174" class="er attributeBoxEven"></rect><text transform="translate(179,57)" style="dominant-baseline: middle; font-size: 10.2px;" y="0" x="0" id="text-entity-TABPARTITION-9b2cf676-b706-5e90-98c7-cd464bd09d0e-attr-2-comment" class="er entityLabel">Partícionált tábla neve</text><rect height="22" width="60" y="68" x="0" class="er attributeBoxOdd"></rect><text transform="translate(5,79)" style="dominant-baseline: middle; font-size: 10.2px;" y="0" x="0" id="text-entity-TABPARTITION-9b2cf676-b706-5e90-98c7-cd464bd09d0e-attr-3-type" class="er entityLabel">VARCHAR2</text><rect height="22" width="114" y="68" x="60" class="er attributeBoxOdd"></rect><text transform="translate(65,79)" style="dominant-baseline: middle; font-size: 10.2px;" y="0" x="0" id="text-entity-TABPARTITION-9b2cf676-b706-5e90-98c7-cd464bd09d0e-attr-3-name" class="er entityLabel">COMPOSITE</text><rect height="22" width="170" y="68" x="174" class="er attributeBoxOdd"></rect><text transform="translate(179,79)" style="dominant-baseline: middle; font-size: 10.2px;" y="0" x="0" id="text-entity-TABPARTITION-9b2cf676-b706-5e90-98c7-cd464bd09d0e-attr-3-comment" class="er entityLabel">YES, ha van alpartíció, különben NO</text><rect height="22" width="60" y="90" x="0" class="er attributeBoxEven"></rect><text transform="translate(5,101)" style="dominant-baseline: middle; font-size: 10.2px;" y="0" x="0" id="text-entity-TABPARTITION-9b2cf676-b706-5e90-98c7-cd464bd09d0e-attr-4-type" class="er entityLabel">VARCHAR2</text><rect height="22" width="114" y="90" x="60" class="er attributeBoxEven"></rect><text transform="translate(65,101)" style="dominant-baseline: middle; font-size: 10.2px;" y="0" x="0" id="text-entity-TABPARTITION-9b2cf676-b706-5e90-98c7-cd464bd09d0e-attr-4-name" class="er entityLabel">PARTITION_NAME</text><rect height="22" width="170" y="90" x="174" class="er attributeBoxEven"></rect><text transform="translate(179,101)" style="dominant-baseline: middle; font-size: 10.2px;" y="0" x="0" id="text-entity-TABPARTITION-9b2cf676-b706-5e90-98c7-cd464bd09d0e-attr-4-comment" class="er entityLabel">Partíció neve</text><rect height="22" width="60" y="112" x="0" class="er attributeBoxOdd"></rect><text transform="translate(5,123)" style="dominant-baseline: middle; font-size: 10.2px;" y="0" x="0" id="text-entity-TABPARTITION-9b2cf676-b706-5e90-98c7-cd464bd09d0e-attr-5-type" class="er entityLabel">NUMBER</text><rect height="22" width="114" y="112" x="60" class="er attributeBoxOdd"></rect><text transform="translate(65,123)" style="dominant-baseline: middle; font-size: 10.2px;" y="0" x="0" id="text-entity-TABPARTITION-9b2cf676-b706-5e90-98c7-cd464bd09d0e-attr-5-name" class="er entityLabel">SUBPARTITION_COUNT</text><rect height="22" width="170" y="112" x="174" class="er attributeBoxOdd"></rect><text transform="translate(179,123)" style="dominant-baseline: middle; font-size: 10.2px;" y="0" x="0" id="text-entity-TABPARTITION-9b2cf676-b706-5e90-98c7-cd464bd09d0e-attr-5-comment" class="er entityLabel">Alpartíciók száma</text></g><g transform="translate(20,488 )" id="entity-SUBPARTITION-6994f03e-4f1d-5441-b9b7-368abbea2bac"><rect height="112" width="281" y="0" x="0" class="er entityBox"></rect><text transform="translate(140.5,12)" style="dominant-baseline: middle; text-anchor: middle; font-size: 12px;" y="0" x="0" id="text-entity-SUBPARTITION-6994f03e-4f1d-5441-b9b7-368abbea2bac" class="er entityLabel">SUB_PARTITION</text><rect height="22" width="60" y="24" x="0" class="er attributeBoxOdd"></rect><text transform="translate(5,35)" style="dominant-baseline: middle; font-size: 10.2px;" y="0" x="0" id="text-entity-SUBPARTITION-6994f03e-4f1d-5441-b9b7-368abbea2bac-attr-1-type" class="er entityLabel">VARCHAR2</text><rect height="22" width="108" y="24" x="60" class="er attributeBoxOdd"></rect><text transform="translate(65,35)" style="dominant-baseline: middle; font-size: 10.2px;" y="0" x="0" id="text-entity-SUBPARTITION-6994f03e-4f1d-5441-b9b7-368abbea2bac-attr-1-name" class="er entityLabel">TABLE_OWNER</text><rect height="22" width="113" y="24" x="168" class="er attributeBoxOdd"></rect><text transform="translate(173,35)" style="dominant-baseline: middle; font-size: 10.2px;" y="0" x="0" id="text-entity-SUBPARTITION-6994f03e-4f1d-5441-b9b7-368abbea2bac-attr-1-comment" class="er entityLabel">Tábla tulajdonosa</text><rect height="22" width="60" y="46" x="0" class="er attributeBoxEven"></rect><text transform="translate(5,57)" style="dominant-baseline: middle; font-size: 10.2px;" y="0" x="0" id="text-entity-SUBPARTITION-6994f03e-4f1d-5441-b9b7-368abbea2bac-attr-2-type" class="er entityLabel">VARCHAR2</text><rect height="22" width="108" y="46" x="60" class="er attributeBoxEven"></rect><text transform="translate(65,57)" style="dominant-baseline: middle; font-size: 10.2px;" y="0" x="0" id="text-entity-SUBPARTITION-6994f03e-4f1d-5441-b9b7-368abbea2bac-attr-2-name" class="er entityLabel">TABLE_NAME</text><rect height="22" width="113" y="46" x="168" class="er attributeBoxEven"></rect><text transform="translate(173,57)" style="dominant-baseline: middle; font-size: 10.2px;" y="0" x="0" id="text-entity-SUBPARTITION-6994f03e-4f1d-5441-b9b7-368abbea2bac-attr-2-comment" class="er entityLabel">Partícionált tábla neve</text><rect height="22" width="60" y="68" x="0" class="er attributeBoxOdd"></rect><text transform="translate(5,79)" style="dominant-baseline: middle; font-size: 10.2px;" y="0" x="0" id="text-entity-SUBPARTITION-6994f03e-4f1d-5441-b9b7-368abbea2bac-attr-3-type" class="er entityLabel">VARCHAR2</text><rect height="22" width="108" y="68" x="60" class="er attributeBoxOdd"></rect><text transform="translate(65,79)" style="dominant-baseline: middle; font-size: 10.2px;" y="0" x="0" id="text-entity-SUBPARTITION-6994f03e-4f1d-5441-b9b7-368abbea2bac-attr-3-name" class="er entityLabel">PARTITION_NAME</text><rect height="22" width="113" y="68" x="168" class="er attributeBoxOdd"></rect><text transform="translate(173,79)" style="dominant-baseline: middle; font-size: 10.2px;" y="0" x="0" id="text-entity-SUBPARTITION-6994f03e-4f1d-5441-b9b7-368abbea2bac-attr-3-comment" class="er entityLabel">Szülőpartíció neve</text><rect height="22" width="60" y="90" x="0" class="er attributeBoxEven"></rect><text transform="translate(5,101)" style="dominant-baseline: middle; font-size: 10.2px;" y="0" x="0" id="text-entity-SUBPARTITION-6994f03e-4f1d-5441-b9b7-368abbea2bac-attr-4-type" class="er entityLabel">VARCHAR2</text><rect height="22" width="108" y="90" x="60" class="er attributeBoxEven"></rect><text transform="translate(65,101)" style="dominant-baseline: middle; font-size: 10.2px;" y="0" x="0" id="text-entity-SUBPARTITION-6994f03e-4f1d-5441-b9b7-368abbea2bac-attr-4-name" class="er entityLabel">SUBPARTITION_NAME</text><rect height="22" width="113" y="90" x="168" class="er attributeBoxEven"></rect><text transform="translate(173,101)" style="dominant-baseline: middle; font-size: 10.2px;" y="0" x="0" id="text-entity-SUBPARTITION-6994f03e-4f1d-5441-b9b7-368abbea2bac-attr-4-comment" class="er entityLabel">Alpartíció neve</text></g><g transform="translate(401,488 )" id="entity-PARTKEYCOLUMN-50f9436b-b159-5410-abd0-0518577cff1e"><rect height="112" width="252" y="0" x="0" class="er entityBox"></rect><text transform="translate(126,12)" style="dominant-baseline: middle; text-anchor: middle; font-size: 12px;" y="0" x="0" id="text-entity-PARTKEYCOLUMN-50f9436b-b159-5410-abd0-0518577cff1e" class="er entityLabel">PART_KEY_COLUMN</text><rect height="22" width="60" y="24" x="0" class="er attributeBoxOdd"></rect><text transform="translate(5,35)" style="dominant-baseline: middle; font-size: 10.2px;" y="0" x="0" id="text-entity-PARTKEYCOLUMN-50f9436b-b159-5410-abd0-0518577cff1e-attr-1-type" class="er entityLabel">VARCHAR2</text><rect height="22" width="81" y="24" x="60" class="er attributeBoxOdd"></rect><text transform="translate(65,35)" style="dominant-baseline: middle; font-size: 10.2px;" y="0" x="0" id="text-entity-PARTKEYCOLUMN-50f9436b-b159-5410-abd0-0518577cff1e-attr-1-name" class="er entityLabel">OWNER</text><rect height="22" width="111" y="24" x="141" class="er attributeBoxOdd"></rect><text transform="translate(146,35)" style="dominant-baseline: middle; font-size: 10.2px;" y="0" x="0" id="text-entity-PARTKEYCOLUMN-50f9436b-b159-5410-abd0-0518577cff1e-attr-1-comment" class="er entityLabel">A partíció tulajdonosa</text><rect height="22" width="60" y="46" x="0" class="er attributeBoxEven"></rect><text transform="translate(5,57)" style="dominant-baseline: middle; font-size: 10.2px;" y="0" x="0" id="text-entity-PARTKEYCOLUMN-50f9436b-b159-5410-abd0-0518577cff1e-attr-2-type" class="er entityLabel">VARCHAR2</text><rect height="22" width="81" y="46" x="60" class="er attributeBoxEven"></rect><text transform="translate(65,57)" style="dominant-baseline: middle; font-size: 10.2px;" y="0" x="0" id="text-entity-PARTKEYCOLUMN-50f9436b-b159-5410-abd0-0518577cff1e-attr-2-name" class="er entityLabel">NAME</text><rect height="22" width="111" y="46" x="141" class="er attributeBoxEven"></rect><text transform="translate(146,57)" style="dominant-baseline: middle; font-size: 10.2px;" y="0" x="0" id="text-entity-PARTKEYCOLUMN-50f9436b-b159-5410-abd0-0518577cff1e-attr-2-comment" class="er entityLabel">A partíció neve</text><rect height="22" width="60" y="68" x="0" class="er attributeBoxOdd"></rect><text transform="translate(5,79)" style="dominant-baseline: middle; font-size: 10.2px;" y="0" x="0" id="text-entity-PARTKEYCOLUMN-50f9436b-b159-5410-abd0-0518577cff1e-attr-3-type" class="er entityLabel">CHAR</text><rect height="22" width="81" y="68" x="60" class="er attributeBoxOdd"></rect><text transform="translate(65,79)" style="dominant-baseline: middle; font-size: 10.2px;" y="0" x="0" id="text-entity-PARTKEYCOLUMN-50f9436b-b159-5410-abd0-0518577cff1e-attr-3-name" class="er entityLabel">OBJECT_TYPE</text><rect height="22" width="111" y="68" x="141" class="er attributeBoxOdd"></rect><text transform="translate(146,79)" style="dominant-baseline: middle; font-size: 10.2px;" y="0" x="0" id="text-entity-PARTKEYCOLUMN-50f9436b-b159-5410-abd0-0518577cff1e-attr-3-comment" class="er entityLabel">TABLE vagy INDEX</text><rect height="22" width="60" y="90" x="0" class="er attributeBoxEven"></rect><text transform="translate(5,101)" style="dominant-baseline: middle; font-size: 10.2px;" y="0" x="0" id="text-entity-PARTKEYCOLUMN-50f9436b-b159-5410-abd0-0518577cff1e-attr-4-type" class="er entityLabel">VARCHAR2</text><rect height="22" width="81" y="90" x="60" class="er attributeBoxEven"></rect><text transform="translate(65,101)" style="dominant-baseline: middle; font-size: 10.2px;" y="0" x="0" id="text-entity-PARTKEYCOLUMN-50f9436b-b159-5410-abd0-0518577cff1e-attr-4-name" class="er entityLabel">COLUMN_NAME</text><rect height="22" width="111" y="90" x="141" class="er attributeBoxEven"></rect><text transform="translate(146,101)" style="dominant-baseline: middle; font-size: 10.2px;" y="0" x="0" id="text-entity-PARTKEYCOLUMN-50f9436b-b159-5410-abd0-0518577cff1e-attr-4-comment" class="er entityLabel">Oszlop neve</text></g><g transform="translate(80,700 )" id="entity-SUBPARTKEYCOLUMN-4d8d21fc-4937-5160-a27a-e409b5561f55"><rect height="112" width="161" y="0" x="0" class="er entityBox"></rect><text transform="translate(80.5,12)" style="dominant-baseline: middle; text-anchor: middle; font-size: 12px;" y="0" x="0" id="text-entity-SUBPARTKEYCOLUMN-4d8d21fc-4937-5160-a27a-e409b5561f55" class="er entityLabel">SUBPART_KEY_COLUMN</text><rect height="22" width="70" y="24" x="0" class="er attributeBoxOdd"></rect><text transform="translate(5,35)" style="dominant-baseline: middle; font-size: 10.2px;" y="0" x="0" id="text-entity-SUBPARTKEYCOLUMN-4d8d21fc-4937-5160-a27a-e409b5561f55-attr-1-type" class="er entityLabel">VARCHAR2</text><rect height="22" width="91" y="24" x="70" class="er attributeBoxOdd"></rect><text transform="translate(75,35)" style="dominant-baseline: middle; font-size: 10.2px;" y="0" x="0" id="text-entity-SUBPARTKEYCOLUMN-4d8d21fc-4937-5160-a27a-e409b5561f55-attr-1-name" class="er entityLabel">OWNER</text><rect height="22" width="70" y="46" x="0" class="er attributeBoxEven"></rect><text transform="translate(5,57)" style="dominant-baseline: middle; font-size: 10.2px;" y="0" x="0" id="text-entity-SUBPARTKEYCOLUMN-4d8d21fc-4937-5160-a27a-e409b5561f55-attr-2-type" class="er entityLabel">VARCHAR2</text><rect height="22" width="91" y="46" x="70" class="er attributeBoxEven"></rect><text transform="translate(75,57)" style="dominant-baseline: middle; font-size: 10.2px;" y="0" x="0" id="text-entity-SUBPARTKEYCOLUMN-4d8d21fc-4937-5160-a27a-e409b5561f55-attr-2-name" class="er entityLabel">NAME</text><rect height="22" width="70" y="68" x="0" class="er attributeBoxOdd"></rect><text transform="translate(5,79)" style="dominant-baseline: middle; font-size: 10.2px;" y="0" x="0" id="text-entity-SUBPARTKEYCOLUMN-4d8d21fc-4937-5160-a27a-e409b5561f55-attr-3-type" class="er entityLabel">CHAR</text><rect height="22" width="91" y="68" x="70" class="er attributeBoxOdd"></rect><text transform="translate(75,79)" style="dominant-baseline: middle; font-size: 10.2px;" y="0" x="0" id="text-entity-SUBPARTKEYCOLUMN-4d8d21fc-4937-5160-a27a-e409b5561f55-attr-3-name" class="er entityLabel">OBJECT_TYPE</text><rect height="22" width="70" y="90" x="0" class="er attributeBoxEven"></rect><text transform="translate(5,101)" style="dominant-baseline: middle; font-size: 10.2px;" y="0" x="0" id="text-entity-SUBPARTKEYCOLUMN-4d8d21fc-4937-5160-a27a-e409b5561f55-attr-4-type" class="er entityLabel">VARCHAR2</text><rect height="22" width="91" y="90" x="70" class="er attributeBoxEven"></rect><text transform="translate(75,101)" style="dominant-baseline: middle; font-size: 10.2px;" y="0" x="0" id="text-entity-SUBPARTKEYCOLUMN-4d8d21fc-4937-5160-a27a-e409b5561f55-attr-4-name" class="er entityLabel">COLUMN_NAME</text></g><rect height="14" width="218" y="197" x="234.75" class="er relationshipLabelBox"></rect><text style="text-anchor: middle; dominant-baseline: middle; font-size: 12px;" y="204" x="343.75" id="rel1" class="er relationshipLabel">(OWNER - TABLE_OWNER, TABLE_NAME)</text><rect height="14" width="166" y="420.191650390625" x="100.67269897460938" class="er relationshipLabelBox"></rect><text style="text-anchor: middle; dominant-baseline: middle; font-size: 12px;" y="427.191650390625" x="183.67269897460938" id="rel2" class="er relationshipLabel">(TABLE_OWNER, TABLE_NAME)</text><rect height="14" width="261" y="643" x="30" class="er relationshipLabelBox"></rect><text style="text-anchor: middle; dominant-baseline: middle; font-size: 12px;" y="650" x="160.5" id="rel3" class="er relationshipLabel">(OWNER - TABLE_OWNER, NAME - TABLE_NAME)</text><rect height="14" width="261" y="420.1916198730469" x="373.3272705078125" class="er relationshipLabelBox"></rect><text style="text-anchor: middle; dominant-baseline: middle; font-size: 12px;" y="427.1916198730469" x="503.8272705078125" id="rel4" class="er relationshipLabel">(OWNER - TABLE_OWNER, NAME - TABLE_NAME)</text></svg>
