<svg xmlns="http://www.w3.org/2000/svg" viewBox="0 0 642 330">
    <style>@media (prefers-color-scheme:dark){text{fill:#e3e3e3} .axis{stroke:#e3e3e3}}</style>
    <path stroke="silver" stroke-dasharray="9 8" stroke-linejoin="round" stroke-miterlimit="10"
          d="M321.5.5v302m0-302v302M.5 27.5h642m-642 0h642m-642 55h642m-642 55h642m-642 55h642m-642 55h642"/>
    <g stroke="#1C1E21" stroke-miterlimit="10" class="axis">
        <path d="M29.5 2.5v300m0-301-4 4m4-4 4 4"/>
        <path d="M.5 302.5h640m1 0-4-4m4 4-4 4"/>
    </g>
    <g fill="#1C1E21" font-size="12">
        <text x="624" y="298" font-size="16">x</text>
        <text x="24" y="318">–5</text>
        <text x="82" y="318">–4</text>
        <text x="140" y="318">–3</text>
        <text x="199" y="318">–2</text>
        <text x="257" y="318">–1</text>
        <text x="319" y="318">0</text>
        <text x="377" y="318">1</text>
        <text x="435" y="318">2</text>
        <text x="494" y="318">3</text>
        <text x="552" y="318">4</text>
        <text x="610" y="318">5</text>
        <text x="34" y="17" font-size="16">y</text>
        <text x="15" y="300">0</text>
        <text x="5" y="252">0,2</text>
        <text x="5" y="197">0,4</text>
        <text x="5" y="142">0,6</text>
        <text x="5" y="87">0,8</text>
        <text x="15" y="32">1</text>
    </g>
    <g fill="none" stroke-linecap="round" stroke-linejoin="round" stroke-opacity=".8" stroke-width="2.5">
        <path stroke="#1565C0"
              d="M1 302.5h216l1-.1h4l1-.1h2l1-.1h1l1-.1h1l1-.2h1l1-.1h0l1-.1h0l1-.1h0l1-.2h0l1-.1h0l1-.2h0l1-.2h0l1-.2h0l1-.2h0l1-.2h0l1-.3h0l1-.3h0l1-.4h0l1-.3h0l1-.5h0l1-.4h0l1-.5h0l1-.6h0l1-.6h0l1-.6h0l1-.8h0l1-.7h0l1-.9h0l1-1h0l1-1h0l1-1h0l1-1.2h0l1-1.3h0l1-1.4h0l1-1.5h0l1-1.6h0l1-1.7h0l1-1.8h0l1-2h0l1-2h0l1-2.3h0l1-2.3h0l1-2.5h0l1-2.7h0l1-2.8h0l1-3h0l1-3h0l1-3.3h0l1-3.4h0l1-3.6h0l1-3.7h0l1-4h0l1-4h0l1-4.2h0l1-4.4h0l1-4.5h0l1-4.7h0l1-4.8h0l1-5h0l1-5h0l1-5.2h0l1-5.3h0l1-5.4h0l1-5.5h0l1-5.5h0l1-5.6h0l1-5.7h0l1-5.7h0l1-5.7h0l1-5.7h0l1-5.6h0l1-5.7h0l1-5.6h0l1-5.5h0l1-5.4h0l1-5.3h0l1-5.2h0l1-5h0l1-4.9h0l1-4.7h0l1-4.4h0l1-4.3h0l1-4h0l1-3.8h0l1-3.5h0l1-3.2h0l1-2.9h0l1-2.6h0l1-2.2h0l1-2h0l1-1.6h0l1-1.2h0l1-.9h0l1-.5h0l1-.2v.2l1-.2v.2l1 .5h0l1 .9h0l1 1.2h0l1 1.6h0l1 2h0l1 2.2h0l1 2.6h0l1 3h0l1 3.1h0l1 3.5h0l1 3.8h0l1 4h0l1 4.3h0l1 4.4h0l1 4.7h0l1 4.9h0l1 5h0l1 5.2h0l1 5.3h0l1 5.4h0l1 5.5h0l1 5.6h0l1 5.7h0l1 5.6h0l1 5.7h0l1 5.7h0l1 5.7h0l1 5.7h0l1 5.6h0l1 5.5h0l1 5.5h0l1 5.4h0l1 5.3h0l1 5.2h0l1 5h0l1 5h0l1 4.8h0l1 4.7h0l1 4.5h0l1 4.4h0l1 4.2h0l1 4h0l1 4h0l1 3.7h0l1 3.6h0l1 3.4h0l1 3.3h0l1 3h0l1 3h0l1 2.8h0l1 2.7h0l1 2.5h0l1 2.3h0l1 2.3h0l1 2h0l1 2h0l1 1.8h0l1 1.7h0l1 1.6h0l1 1.5h0l1 1.4h0l1 1.3h0l1 1.2h0l1 1h0l1 1h0l1 1h0l1 .9h0l1 .7h0l1 .8h0l1 .6h0l1 .6h0l1 .6h0l1 .5h0l1 .4h0l1 .5h0l1 .3h0l1 .4h0l1 .3h0l1 .3h0l1 .2h0l1 .2h0l1 .2h0l1 .2h0l1 .2h0l1 .1h0l1 .2h1l1 .2h1l1 .1h0l1 .1h1l1 .1h1l1 .1h2l1 .1h3l1 .1h18l1 .1h199"/>
        <path stroke="#D32F2F"
              d="M1 302.5h100l1-.1h11l1-.1h6l1-.1h4l1-.1h3l1-.1h2l1-.1h2l1-.1h1l1-.1h2l1-.1h1l1-.1h0l1-.1h1l1-.1h1l1-.2h1l1-.1h1l1-.2h1l1-.1h0l1-.1h0l1-.1h0l1-.1h0l1-.1h0l1-.1h0l1-.1h0l1-.2h1l1-.2h0l1-.1h0l1-.2h0l1-.1h0l1-.2h0l1-.1h0l1-.2h0l1-.2h0l1-.1h0l1-.2h0l1-.2h0l1-.2h0l1-.2h0l1-.2h0l1-.2h0l1-.3h0l1-.2h0l1-.2h0l1-.3h0l1-.2h0l1-.3h0l1-.3h0l1-.3h0l1-.3h0l1-.3h0l1-.3h0l1-.3h0l1-.3h0l1-.4h0l1-.3h0l1-.4h0l1-.4h0l1-.4h0l1-.4h0l1-.4h0l1-.4h0l1-.4h0l1-.5h0l1-.5h0l1-.4h0l1-.5h0l1-.5h0l1-.5h0l1-.5h0l1-.6h0l1-.5h0l1-.6h0l1-.6h0l1-.6h0l1-.6h0l1-.6h0l1-.6h0l1-.7h0l1-.6h0l1-.7h0l1-.7h0l1-.7h0l1-.7h0l1-.8h0l1-.7h0l1-.8h0l1-.8h0l1-.8h0l1-.8h0l1-.8h0l1-.8h0l1-.9h0l1-.8h0l1-1h0l1-.8h0l1-.9h0l1-1h0l1-.8h0l1-1h0l1-1h0l1-1h0l1-.9h0l1-1h0l1-1h0l1-1h0l1-1h0l1-1h0l1-1h0l1-1.1h0l1-1.1h0l1-1h0l1-1.2h0l1-1h0l1-1.1h0l1-1.1h0l1-1.2h0l1-1h0l1-1.2h0l1-1.1h0l1-1.1h0l1-1.2h0l1-1.1h0l1-1.1h0l1-1.2h0l1-1.1h0l1-1.2h0l1-1.1h0l1-1.1h0l1-1.2h0l1-1.1h0l1-1.1h0l1-1.2h0l1-1h0l1-1.2h0l1-1.1h0l1-1.1h0l1-1.1h0l1-1.1h0l1-1.1h0l1-1h0l1-1.1h0l1-1h0l1-1.1h0l1-1h0l1-1h0l1-1h0l1-1h0l1-1h0l1-1h0l1-.9h0l1-.9h0l1-.9h0l1-.9h0l1-.8h0l1-.9h0l1-.8h0l1-.8h0l1-.7h0l1-.8h0l1-.7h0l1-.7h0l1-.7h0l1-.6h0l1-.7h0l1-.5h0l1-.6h0l1-.6h0l1-.5h0l1-.4h0l1-.5h0l1-.4h0l1-.4h0l1-.4h0l1-.3h0l1-.3h0l1-.3h0l1-.2h0l1-.2h0l1-.2h0l1-.2h1l1-.1h1l1-.1h2l1 .1h0l1 .1h0l1 .2h0l1 .2h0l1 .2h0l1 .2h0l1 .3h0l1 .3h0l1 .3h0l1 .4h0l1 .4h0l1 .4h0l1 .5h0l1 .4h0l1 .5h0l1 .6h0l1 .6h0l1 .5h0l1 .7h0l1 .6h0l1 .7h0l1 .7h0l1 .7h0l1 .8h0l1 .7h0l1 .8h0l1 .8h0l1 .9h0l1 .8h0l1 .9h0l1 .9h0l1 1h0l1 .8h0l1 1h0l1 1h0l1 1h0l1 1h0l1 1h0l1 1h0l1 1h0l1 1h0l1 1.1h0l1 1.1h0l1 1h0l1 1.2h0l1 1h0l1 1.2h0l1 1h0l1 1.2h0l1 1.1h0l1 1.2h0l1 1h0l1 1.2h0l1 1.2h0l1 1.1h0l1 1.1h0l1 1.2h0l1 1.1h0l1 1.2h0l1 1.1h0l1 1.1h0l1 1.2h0l1 1h0l1 1.2h0l1 1.1h0l1 1.1h0l1 1.2h0l1 1h0l1 1.2h0l1 1h0l1 1.1h0l1 1h0l1 1.2h0l1 1h0l1 1h0l1 1h0l1 1.1h0l1 1h0l1 1h0l1 1h0l1 1h0l1 1h0l1 1h0l1 .9h0l1 .9h0l1 .9h0l1 .9h0l1 .9h0l1 .9h0l1 .8h0l1 .9h0l1 .8h0l1 .8h0l1 .8h0l1 .8h0l1 .8h0l1 .8h0l1 .7h0l1 .8h0l1 .7h0l1 .7h0l1 .7h0l1 .7h0l1 .6h0l1 .7h0l1 .6h0l1 .6h0l1 .6h0l1 .6h0l1 .6h0l1 .6h0l1 .5h0l1 .6h0l1 .5h0l1 .5h0l1 .5h0l1 .5h0l1 .4h0l1 .5h0l1 .5h0l1 .4h0l1 .4h0l1 .4h0l1 .4h0l1 .4h0l1 .4h0l1 .4h0l1 .3h0l1 .4h0l1 .3h0l1 .3h0l1 .3h0l1 .3h0l1 .3h0l1 .3h0l1 .3h0l1 .3h0l1 .2h0l1 .3h0l1 .2h0l1 .2h0l1 .3h0l1 .2h0l1 .2h0l1 .2h0l1 .2h0l1 .2h0l1 .2h0l1 .1h0l1 .2h0l1 .2h0l1 .1h0l1 .2h0l1 .1h0l1 .2h1l1 .2h0l1 .1h0l1 .2h1l1 .2h1l1 .2h1l1 .2h1l1 .1h0l1 .1h0l1 .1h1l1 .1h0l1 .1h1l1 .1h0l1 .1h1l1 .1h1l1 .1h1l1 .1h2l1 .1h2l1 .1h2l1 .1h3l1 .1h4l1 .1h5l1 .1h10l1 .1h42l1 .1h60"/>
        <path stroke="#DB6114"
              d="M1 300v.1h1l1-.1h1l1-.1h1l1-.1h1l1-.1h1l1-.1h1l1-.1h1l1-.1h0l1-.1h1l1-.1h1l1-.1h1l1-.2h2l1-.1h0l1-.1h1l1-.1h0l1-.1h1l1-.2h1l1-.1h1l1-.1h0l1-.1h0l1-.1h1l1-.2h1l1-.1h1l1-.2h1l1-.1h0l1-.1h0l1-.1h0l1-.1h1l1-.2h1l1-.2h1l1-.2h1l1-.1h0l1-.1h0l1-.1h0l1-.1h0l1-.1h0l1-.1h0l1-.1h0l1-.2h1l1-.2h1l1-.2h1l1-.2h0l1-.1h0l1-.1h0l1-.1h0l1-.2h1l1-.2h0l1-.1h0l1-.1h0l1-.2h1l1-.2h0l1-.1h0l1-.2h0l1-.1h0l1-.1h0l1-.2h0l1-.1h0l1-.1h0l1-.2h0l1-.1h0l1-.1h0l1-.2h0l1-.1h0l1-.2h0l1-.1h0l1-.2h0l1-.1h0l1-.1h0l1-.2h0l1-.1h0l1-.2h0l1-.1h0l1-.2h0l1-.2h0l1-.1h0l1-.2h0l1-.1h0l1-.2h0l1-.2h0l1-.1h0l1-.2h0l1-.1h0l1-.2h0l1-.2h0l1-.1h0l1-.2h0l1-.2h0l1-.2h0l1-.1h0l1-.2h0l1-.2h0l1-.2h0l1-.1h0l1-.2h0l1-.2h0l1-.2h0l1-.2h0l1-.2h0l1-.1h0l1-.2h0l1-.2h0l1-.2h0l1-.2h0l1-.2h0l1-.2h0l1-.2h0l1-.2h0l1-.2h0l1-.2h0l1-.2h0l1-.2h0l1-.2h0l1-.2h0l1-.2h0l1-.2h0l1-.2h0l1-.2h0l1-.2h0l1-.2h0l1-.2h0l1-.2h0l1-.2h0l1-.2h0l1-.2h0l1-.2h0l1-.2h0l1-.3h0l1-.2h0l1-.2h0l1-.2h0l1-.2h0l1-.2h0l1-.3h0l1-.2h0l1-.2h0l1-.2h0l1-.2h0l1-.3h0l1-.2h0l1-.2h0l1-.2h0l1-.2h0l1-.3h0l1-.2h0l1-.2h0l1-.2h0l1-.3h0l1-.2h0l1-.2h0l1-.2h0l1-.3h0l1-.2h0l1-.2h0l1-.3h0l1-.2h0l1-.2h0l1-.2h0l1-.3h0l1-.2h0l1-.2h0l1-.2h0l1-.3h0l1-.2h0l1-.2h0l1-.3h0l1-.2h0l1-.2h0l1-.2h0l1-.3h0l1-.2h0l1-.2h0l1-.2h0l1-.3h0l1-.2h0l1-.2h0l1-.3h0l1-.2h0l1-.2h0l1-.2h0l1-.2h0l1-.3h0l1-.2h0l1-.2h0l1-.2h0l1-.3h0l1-.2h0l1-.2h0l1-.2h0l1-.2h0l1-.3h0l1-.2h0l1-.2h0l1-.2h0l1-.2h0l1-.2h0l1-.2h0l1-.2h0l1-.3h0l1-.2h0l1-.2h0l1-.2h0l1-.2h0l1-.2h0l1-.2h0l1-.2h0l1-.2h0l1-.2h0l1-.2h0l1-.2h0l1-.2h0l1-.2h0l1-.2h0l1-.1h0l1-.2h0l1-.2h0l1-.2h0l1-.2h0l1-.2h0l1-.2h0l1-.1h0l1-.2h0l1-.2h0l1-.2h0l1-.1h0l1-.2h0l1-.2h0l1-.1h0l1-.2h0l1-.2h0l1-.1h0l1-.2h0l1-.1h0l1-.2h0l1-.1h0l1-.2h0l1-.1h0l1-.2h0l1-.1h0l1-.2h0l1-.1h0l1-.2h1l1-.2h0l1-.2h1l1-.2h0l1-.1h0l1-.2h1l1-.2h0l1-.1h0l1-.1h0l1-.1h0l1-.1h0l1-.1h0l1-.1h0l1-.1h0l1-.1h0l1-.1h0l1-.1h0l1-.1h1l1-.2h1l1-.1h0l1-.1h1l1-.1h0l1-.1h1l1-.1h1l1-.1h0l1-.1h1l1-.1h2l1-.1h2l1-.1h3l1-.1h16l1 .1h2l1 .1h1l1 .1h1l1 .1h1l1 .1h1l1 .1h1l1 .2h1l1 .1h1l1 .2h1l1 .1h0l1 .1h1l1 .2h1l1 .2h1l1 .2h1l1 .2h1l1 .2h0l1 .1h0l1 .1h0l1 .1h0l1 .2h1l1 .2h0l1 .1h0l1 .2h0l1 .1h0l1 .1h0l1 .2h0l1 .1h0l1 .2h0l1 .1h0l1 .2h0l1 .1h0l1 .2h0l1 .1h0l1 .2h0l1 .1h0l1 .2h0l1 .1h0l1 .2h0l1 .2h0l1 .1h0l1 .2h0l1 .2h0l1 .1h0l1 .2h0l1 .2h0l1 .2h0l1 .1h0l1 .2h0l1 .2h0l1 .2h0l1 .2h0l1 .2h0l1 .2h0l1 .1h0l1 .2h0l1 .2h0l1 .2h0l1 .2h0l1 .2h0l1 .2h0l1 .2h0l1 .2h0l1 .2h0l1 .2h0l1 .2h0l1 .2h0l1 .2h0l1 .2h0l1 .3h0l1 .2h0l1 .2h0l1 .2h0l1 .2h0l1 .2h0l1 .2h0l1 .2h0l1 .3h0l1 .2h0l1 .2h0l1 .2h0l1 .2h0l1 .3h0l1 .2h0l1 .2h0l1 .2h0l1 .3h0l1 .2h0l1 .2h0l1 .2h0l1 .2h0l1 .3h0l1 .2h0l1 .2h0l1 .3h0l1 .2h0l1 .2h0l1 .2h0l1 .3h0l1 .2h0l1 .2h0l1 .2h0l1 .3h0l1 .2h0l1 .2h0l1 .3h0l1 .2h0l1 .2h0l1 .2h0l1 .3h0l1 .2h0l1 .2h0l1 .2h0l1 .3h0l1 .2h0l1 .2h0l1 .3h0l1 .2h0l1 .2h0l1 .2h0l1 .3h0l1 .2h0l1 .2h0l1 .2h0l1 .3h0l1 .2h0l1 .2h0l1 .2h0l1 .2h0l1 .3h0l1 .2h0l1 .2h0l1 .2h0l1 .2h0l1 .3h0l1 .2h0l1 .2h0l1 .2h0l1 .2h0l1 .2h0l1 .3h0l1 .2h0l1 .2h0l1 .2h0l1 .2h0l1 .2h0l1 .2h0l1 .2h0l1 .2h0l1 .2h0l1 .2h0l1 .2h0l1 .2h0l1 .2h0l1 .2h0l1 .2h0l1 .2h0l1 .2h0l1 .2h0l1 .2h0l1 .2h0l1 .2h0l1 .2h0l1 .2h0l1 .2h0l1 .2h0l1 .2h0l1 .2h0l1 .1h0l1 .2h0l1 .2h0l1 .2h0l1 .2h0l1 .2h0l1 .1h0l1 .2h0l1 .2h0l1 .2h0l1 .1h0l1 .2h0l1 .2h0l1 .2h0l1 .1h0l1 .2h0l1 .2h0l1 .1h0l1 .2h0l1 .1h0l1 .2h0l1 .2h0l1 .1h0l1 .2h0l1 .1h0l1 .2h0l1 .2h0l1 .1h0l1 .2h0l1 .1h0l1 .2h0l1 .1h0l1 .1h0l1 .2h0l1 .1h0l1 .2h0l1 .1h0l1 .2h0l1 .1h0l1 .1h0l1 .2h0l1 .1h0l1 .1h0l1 .2h0l1 .1h0l1 .1h0l1 .2h1l1 .2h0l1 .1h0l1 .2h1l1 .2h0l1 .1h0l1 .1h0l1 .2h1l1 .2h1l1 .2h0l1 .1h0l1 .1h0l1 .1h0l1 .1h0l1 .1h0l1 .2h1l1 .2h1l1 .2h1l1 .2h1l1 .1h0l1 .1h0l1 .1h0l1 .1h0l1 .1h0l1 .1h0l1 .1h1l1 .2h1l1 .1h0l1 .1h0l1 .1h1l1 .2h1l1 .1h0l1 .1h1l1 .2h1l1 .1h1l1 .1h0l1 .1h1l1 .2h2l1 .2h2l1 .1h0l1 .1h1l1 .1h1l1 .1h0l1 .1h1l1 .1h1l1 .1h1l1 .1h1l1 .1h1l1 .1h1l1 .1h1l1 .1h1l1 .1"/>
        <path stroke="#2E7D32"
              d="M1 302.5h44l1-.1h7l1-.1h4l1-.1h2l1-.1h2l1-.1h1l1-.1h1l1-.1h1l1-.1h0l1-.1h1l1-.2h1l1-.1h0l1-.1h0l1-.1h0l1-.1h0l1-.2h1l1-.2h0l1-.2h0l1-.1h0l1-.2h0l1-.2h0l1-.1h0l1-.2h0l1-.2h0l1-.3h0l1-.2h0l1-.2h0l1-.3h0l1-.3h0l1-.3h0l1-.3h0l1-.3h0l1-.3h0l1-.4h0l1-.4h0l1-.4h0l1-.4h0l1-.4h0l1-.5h0l1-.5h0l1-.5h0l1-.5h0l1-.6h0l1-.6h0l1-.6h0l1-.7h0l1-.6h0l1-.7h0l1-.8h0l1-.8h0l1-.8h0l1-.8h0l1-.9h0l1-.9h0l1-.9h0l1-1h0l1-1h0l1-1h0l1-1.1h0l1-1.1h0l1-1.2h0l1-1.2h0l1-1.2h0l1-1.3h0l1-1.3h0l1-1.4h0l1-1.4h0l1-1.4h0l1-1.5h0l1-1.5h0l1-1.6h0l1-1.6h0l1-1.6h0l1-1.7h0l1-1.7h0l1-1.8h0l1-1.8h0l1-1.8h0l1-2h0l1-1.8h0l1-2h0l1-2h0l1-2h0l1-2h0l1-2h0l1-2.1h0l1-2.2h0l1-2.1h0l1-2.2h0l1-2.2h0l1-2.2h0l1-2.2h0l1-2.2h0l1-2.3h0l1-2.3h0l1-2.2h0l1-2.3h0l1-2.3h0l1-2.3h0l1-2.3h0l1-2.2h0l1-2.3h0l1-2.2h0l1-2.3h0l1-2.2h0l1-2.2h0l1-2.2h0l1-2.1h0l1-2.2h0l1-2h0l1-2.1h0l1-2h0l1-2h0l1-2h0l1-1.8h0l1-1.8h0l1-1.8h0l1-1.8h0l1-1.6h0l1-1.6h0l1-1.6h0l1-1.4h0l1-1.4h0l1-1.4h0l1-1.2h0l1-1.2h0l1-1.1h0l1-1h0l1-1h0l1-.9h0l1-.8h0l1-.7h0l1-.6h0l1-.5h0l1-.4h0l1-.4h0l1-.2h0l1-.2h3l1 .3h0l1 .3h0l1 .4h0l1 .4h0l1 .6h0l1 .6h0l1 .8h0l1 .8h0l1 .9h0l1 1h0l1 1h0l1 1.2h0l1 1.2h0l1 1.3h0l1 1.4h0l1 1.4h0l1 1.5h0l1 1.6h0l1 1.6h0l1 1.7h0l1 1.8h0l1 1.8h0l1 1.8h0l1 2h0l1 1.9h0l1 2h0l1 2h0l1 2.1h0l1 2.1h0l1 2.1h0l1 2.2h0l1 2.2h0l1 2.2h0l1 2.2h0l1 2.3h0l1 2.2h0l1 2.3h0l1 2.3h0l1 2.3h0l1 2.2h0l1 2.3h0l1 2.3h0l1 2.3h0l1 2.2h0l1 2.3h0l1 2.2h0l1 2.2h0l1 2.2h0l1 2.2h0l1 2.2h0l1 2.1h0l1 2.1h0l1 2.1h0l1 2h0l1 2h0l1 2h0l1 2h0l1 2h0l1 1.8h0l1 2h0l1 1.7h0l1 1.8h0l1 1.7h0l1 1.8h0l1 1.6h0l1 1.6h0l1 1.6h0l1 1.6h0l1 1.5h0l1 1.4h0l1 1.5h0l1 1.3h0l1 1.4h0l1 1.3h0l1 1.2h0l1 1.3h0l1 1.2h0l1 1h0l1 1.2h0l1 1h0l1 1h0l1 1h0l1 1h0l1 1h0l1 .8h0l1 .9h0l1 .8h0l1 .8h0l1 .8h0l1 .7h0l1 .7h0l1 .6h0l1 .7h0l1 .6h0l1 .5h0l1 .6h0l1 .5h0l1 .5h0l1 .5h0l1 .5h0l1 .4h0l1 .4h0l1 .4h0l1 .4h0l1 .3h0l1 .4h0l1 .3h0l1 .3h0l1 .3h0l1 .2h0l1 .3h0l1 .2h0l1 .2h0l1 .3h0l1 .2h0l1 .1h0l1 .2h0l1 .2h0l1 .1h0l1 .2h0l1 .1h0l1 .2h1l1 .2h0l1 .1h0l1 .1h0l1 .1h1l1 .2h1l1 .1h1l1 .1h0l1 .1h1l1 .1h1l1 .1h2l1 .1h2l1 .1h4l1 .1h6l1 .1h29l1 .1h250"/>
    </g>
</svg>
