<svg aria-roledescription="er" role="graphics-document document" viewBox="0 0 563 605" style="max-width: 100%;" xmlns="http://www.w3.org/2000/svg" width="100%" id="graph-div" height="100%" xmlns:xlink="http://www.w3.org/1999/xlink"><style>@import url("https://cdnjs.cloudflare.com/ajax/libs/font-awesome/6.4.2/css/all.min.css");'</style><style>#graph-div{font-family:"trebuchet ms",verdana,arial,sans-serif;font-size:16px;fill:#ccc;}#graph-div .error-icon{fill:#a44141;}#graph-div .error-text{fill:#ddd;stroke:#ddd;}#graph-div .edge-thickness-normal{stroke-width:2px;}#graph-div .edge-thickness-thick{stroke-width:3.5px;}#graph-div .edge-pattern-solid{stroke-dasharray:0;}#graph-div .edge-pattern-dashed{stroke-dasharray:3;}#graph-div .edge-pattern-dotted{stroke-dasharray:2;}#graph-div .marker{fill:lightgrey;stroke:lightgrey;}#graph-div .marker.cross{stroke:lightgrey;}#graph-div svg{font-family:"trebuchet ms",verdana,arial,sans-serif;font-size:16px;}#graph-div .entityBox{fill:#1f2020;stroke:#81B1DB;}#graph-div .attributeBoxOdd{fill:hsl(0, 0%, 32%);stroke:#81B1DB;}#graph-div .attributeBoxEven{fill:hsl(0, 0%, 22%);stroke:#81B1DB;}#graph-div .relationshipLabelBox{fill:hsl(20, 1.5873015873%, 12.3529411765%);opacity:0.7;background-color:hsl(20, 1.5873015873%, 12.3529411765%);}#graph-div .relationshipLabelBox rect{opacity:0.5;}#graph-div .relationshipLine{stroke:lightgrey;}#graph-div .entityTitleText{text-anchor:middle;font-size:18px;fill:#ccc;}#graph-div #MD_PARENT_START{fill:#f5f5f5!important;stroke:lightgrey!important;stroke-width:1;}#graph-div #MD_PARENT_END{fill:#f5f5f5!important;stroke:lightgrey!important;stroke-width:1;}#graph-div :root{--mermaid-font-family:"trebuchet ms",verdana,arial,sans-serif;}</style><style media="screen" class="darkreader darkreader--sync"></style><g></g><defs><marker orient="auto" markerHeight="240" markerWidth="190" refY="7" refX="0" id="MD_PARENT_START"><path d="M 18,7 L9,13 L1,7 L9,1 Z"></path></marker></defs><defs><marker orient="auto" markerHeight="28" markerWidth="20" refY="7" refX="19" id="MD_PARENT_END"><path d="M 18,7 L9,13 L1,7 L9,1 Z"></path></marker></defs><defs><marker orient="auto" markerHeight="18" markerWidth="18" refY="9" refX="0" id="ONLY_ONE_START"><path data-darkreader-inline-stroke="" style="--darkreader-inline-stroke: #988f81;" d="M9,0 L9,18 M15,0 L15,18" fill="none" stroke="gray"></path></marker></defs><defs><marker orient="auto" markerHeight="18" markerWidth="18" refY="9" refX="18" id="ONLY_ONE_END"><path data-darkreader-inline-stroke="" style="--darkreader-inline-stroke: #988f81;" d="M3,0 L3,18 M9,0 L9,18" fill="none" stroke="gray"></path></marker></defs><defs><marker orient="auto" markerHeight="18" markerWidth="30" refY="9" refX="0" id="ZERO_OR_ONE_START"><circle data-darkreader-inline-stroke="" data-darkreader-inline-fill="" style="--darkreader-inline-fill: #e8e6e3; --darkreader-inline-stroke: #988f81;" r="6" cy="9" cx="21" fill="white" stroke="gray"></circle><path data-darkreader-inline-stroke="" style="--darkreader-inline-stroke: #988f81;" d="M9,0 L9,18" fill="none" stroke="gray"></path></marker></defs><defs><marker orient="auto" markerHeight="18" markerWidth="30" refY="9" refX="30" id="ZERO_OR_ONE_END"><circle data-darkreader-inline-stroke="" data-darkreader-inline-fill="" style="--darkreader-inline-fill: #e8e6e3; --darkreader-inline-stroke: #988f81;" r="6" cy="9" cx="9" fill="white" stroke="gray"></circle><path data-darkreader-inline-stroke="" style="--darkreader-inline-stroke: #988f81;" d="M21,0 L21,18" fill="none" stroke="gray"></path></marker></defs><defs><marker orient="auto" markerHeight="36" markerWidth="45" refY="18" refX="18" id="ONE_OR_MORE_START"><path data-darkreader-inline-stroke="" style="--darkreader-inline-stroke: #988f81;" d="M0,18 Q 18,0 36,18 Q 18,36 0,18 M42,9 L42,27" fill="none" stroke="gray"></path></marker></defs><defs><marker orient="auto" markerHeight="36" markerWidth="45" refY="18" refX="27" id="ONE_OR_MORE_END"><path data-darkreader-inline-stroke="" style="--darkreader-inline-stroke: #988f81;" d="M3,9 L3,27 M9,18 Q27,0 45,18 Q27,36 9,18" fill="none" stroke="gray"></path></marker></defs><defs><marker orient="auto" markerHeight="36" markerWidth="57" refY="18" refX="18" id="ZERO_OR_MORE_START"><circle data-darkreader-inline-stroke="" data-darkreader-inline-fill="" style="--darkreader-inline-fill: #e8e6e3; --darkreader-inline-stroke: #988f81;" r="6" cy="18" cx="48" fill="white" stroke="gray"></circle><path data-darkreader-inline-stroke="" style="--darkreader-inline-stroke: #988f81;" d="M0,18 Q18,0 36,18 Q18,36 0,18" fill="none" stroke="gray"></path></marker></defs><defs><marker orient="auto" markerHeight="36" markerWidth="57" refY="18" refX="39" id="ZERO_OR_MORE_END"><circle data-darkreader-inline-stroke="" data-darkreader-inline-fill="" style="--darkreader-inline-fill: #e8e6e3; --darkreader-inline-stroke: #988f81;" r="6" cy="18" cx="9" fill="white" stroke="gray"></circle><path data-darkreader-inline-stroke="" style="--darkreader-inline-stroke: #988f81;" d="M21,18 Q39,0 57,18 Q39,36 21,18" fill="none" stroke="gray"></path></marker></defs><path data-darkreader-inline-fill="" data-darkreader-inline-stroke="" marker-start="url(#ONLY_ONE_START)" marker-end="url(#ZERO_OR_MORE_END)" style="stroke: gray; fill: none; --darkreader-inline-stroke: #988f81; --darkreader-inline-fill: none;" d="M173.5,351L173.5,359.333C173.5,367.667,173.5,384.333,184.593,401C195.687,417.667,217.873,434.333,228.967,442.667L240.06,451" class="er relationshipLine"></path><path data-darkreader-inline-fill="" data-darkreader-inline-stroke="" marker-start="url(#ONLY_ONE_START)" marker-end="url(#ZERO_OR_MORE_END)" style="stroke: gray; fill: none; --darkreader-inline-stroke: #988f81; --darkreader-inline-fill: none;" d="M173.5,95L173.5,103.333C173.5,111.667,173.5,128.333,173.5,145C173.5,161.667,173.5,178.333,173.5,186.667L173.5,195" class="er relationshipLine"></path><path data-darkreader-inline-fill="" data-darkreader-inline-stroke="" marker-start="url(#ONLY_ONE_START)" marker-end="url(#ZERO_OR_MORE_END)" style="stroke: gray; fill: none; --darkreader-inline-stroke: #988f81; --darkreader-inline-fill: none;" d="M485,310.5L485,325.583C485,340.667,485,370.833,473.907,394.25C462.813,417.667,440.627,434.333,429.533,442.667L418.44,451" class="er relationshipLine"></path><g transform="translate(20,195 )" id="entity-PARTINDEX-de822ce1-87f2-5bef-8721-571a96bf6907"><rect height="156" width="307" y="0" x="0" class="er entityBox"></rect><text transform="translate(153.5,12)" style="dominant-baseline: middle; text-anchor: middle; font-size: 12px;" y="0" x="0" id="text-entity-PARTINDEX-de822ce1-87f2-5bef-8721-571a96bf6907" class="er entityLabel">PART_INDEX</text><rect height="22" width="60" y="24" x="0" class="er attributeBoxOdd"></rect><text transform="translate(5,35)" style="dominant-baseline: middle; font-size: 10.2px;" y="0" x="0" id="text-entity-PARTINDEX-de822ce1-87f2-5bef-8721-571a96bf6907-attr-1-type" class="er entityLabel">VARCHAR2</text><rect height="22" width="126" y="24" x="60" class="er attributeBoxOdd"></rect><text transform="translate(65,35)" style="dominant-baseline: middle; font-size: 10.2px;" y="0" x="0" id="text-entity-PARTINDEX-de822ce1-87f2-5bef-8721-571a96bf6907-attr-1-name" class="er entityLabel">OWNER</text><rect height="22" width="121" y="24" x="186" class="er attributeBoxOdd"></rect><text transform="translate(191,35)" style="dominant-baseline: middle; font-size: 10.2px;" y="0" x="0" id="text-entity-PARTINDEX-de822ce1-87f2-5bef-8721-571a96bf6907-attr-1-comment" class="er entityLabel">az index tulajdonosa</text><rect height="22" width="60" y="46" x="0" class="er attributeBoxEven"></rect><text transform="translate(5,57)" style="dominant-baseline: middle; font-size: 10.2px;" y="0" x="0" id="text-entity-PARTINDEX-de822ce1-87f2-5bef-8721-571a96bf6907-attr-2-type" class="er entityLabel">VARCHAR2</text><rect height="22" width="126" y="46" x="60" class="er attributeBoxEven"></rect><text transform="translate(65,57)" style="dominant-baseline: middle; font-size: 10.2px;" y="0" x="0" id="text-entity-PARTINDEX-de822ce1-87f2-5bef-8721-571a96bf6907-attr-2-name" class="er entityLabel">INDEX_NAME</text><rect height="22" width="121" y="46" x="186" class="er attributeBoxEven"></rect><text transform="translate(191,57)" style="dominant-baseline: middle; font-size: 10.2px;" y="0" x="0" id="text-entity-PARTINDEX-de822ce1-87f2-5bef-8721-571a96bf6907-attr-2-comment" class="er entityLabel">az index neve</text><rect height="22" width="60" y="68" x="0" class="er attributeBoxOdd"></rect><text transform="translate(5,79)" style="dominant-baseline: middle; font-size: 10.2px;" y="0" x="0" id="text-entity-PARTINDEX-de822ce1-87f2-5bef-8721-571a96bf6907-attr-3-type" class="er entityLabel">VARCHAR2</text><rect height="22" width="126" y="68" x="60" class="er attributeBoxOdd"></rect><text transform="translate(65,79)" style="dominant-baseline: middle; font-size: 10.2px;" y="0" x="0" id="text-entity-PARTINDEX-de822ce1-87f2-5bef-8721-571a96bf6907-attr-3-name" class="er entityLabel">TABLE_NAME</text><rect height="22" width="121" y="68" x="186" class="er attributeBoxOdd"></rect><text transform="translate(191,79)" style="dominant-baseline: middle; font-size: 10.2px;" y="0" x="0" id="text-entity-PARTINDEX-de822ce1-87f2-5bef-8721-571a96bf6907-attr-3-comment" class="er entityLabel">a partícionált tábla neve</text><rect height="22" width="60" y="90" x="0" class="er attributeBoxEven"></rect><text transform="translate(5,101)" style="dominant-baseline: middle; font-size: 10.2px;" y="0" x="0" id="text-entity-PARTINDEX-de822ce1-87f2-5bef-8721-571a96bf6907-attr-4-type" class="er entityLabel">varchar2</text><rect height="22" width="126" y="90" x="60" class="er attributeBoxEven"></rect><text transform="translate(65,101)" style="dominant-baseline: middle; font-size: 10.2px;" y="0" x="0" id="text-entity-PARTINDEX-de822ce1-87f2-5bef-8721-571a96bf6907-attr-4-name" class="er entityLabel">PARTITIONING_TYPE</text><rect height="22" width="121" y="90" x="186" class="er attributeBoxEven"></rect><text transform="translate(191,101)" style="dominant-baseline: middle; font-size: 10.2px;" y="0" x="0" id="text-entity-PARTINDEX-de822ce1-87f2-5bef-8721-571a96bf6907-attr-4-comment" class="er entityLabel">Part. stratégia</text><rect height="22" width="60" y="112" x="0" class="er attributeBoxOdd"></rect><text transform="translate(5,123)" style="dominant-baseline: middle; font-size: 10.2px;" y="0" x="0" id="text-entity-PARTINDEX-de822ce1-87f2-5bef-8721-571a96bf6907-attr-5-type" class="er entityLabel">varchar2</text><rect height="22" width="126" y="112" x="60" class="er attributeBoxOdd"></rect><text transform="translate(65,123)" style="dominant-baseline: middle; font-size: 10.2px;" y="0" x="0" id="text-entity-PARTINDEX-de822ce1-87f2-5bef-8721-571a96bf6907-attr-5-name" class="er entityLabel">SUB_PARTITIONING_TYPE</text><rect height="22" width="121" y="112" x="186" class="er attributeBoxOdd"></rect><text transform="translate(191,123)" style="dominant-baseline: middle; font-size: 10.2px;" y="0" x="0" id="text-entity-PARTINDEX-de822ce1-87f2-5bef-8721-571a96bf6907-attr-5-comment" class="er entityLabel">Alpart. stratégia</text><rect height="22" width="60" y="134" x="0" class="er attributeBoxEven"></rect><text transform="translate(5,145)" style="dominant-baseline: middle; font-size: 10.2px;" y="0" x="0" id="text-entity-PARTINDEX-de822ce1-87f2-5bef-8721-571a96bf6907-attr-6-type" class="er entityLabel">number</text><rect height="22" width="126" y="134" x="60" class="er attributeBoxEven"></rect><text transform="translate(65,145)" style="dominant-baseline: middle; font-size: 10.2px;" y="0" x="0" id="text-entity-PARTINDEX-de822ce1-87f2-5bef-8721-571a96bf6907-attr-6-name" class="er entityLabel">PARTITION_COUNT</text><rect height="22" width="121" y="134" x="186" class="er attributeBoxEven"></rect><text transform="translate(191,145)" style="dominant-baseline: middle; font-size: 10.2px;" y="0" x="0" id="text-entity-PARTINDEX-de822ce1-87f2-5bef-8721-571a96bf6907-attr-6-comment" class="er entityLabel">Partíciók száma</text></g><g transform="translate(161.25,451 )" id="entity-INDPARTITION-84cb569d-2d3c-53ce-86fa-1e467d5ba4b9"><rect height="134" width="336" y="0" x="0" class="er entityBox"></rect><text transform="translate(168,12)" style="dominant-baseline: middle; text-anchor: middle; font-size: 12px;" y="0" x="0" id="text-entity-INDPARTITION-84cb569d-2d3c-53ce-86fa-1e467d5ba4b9" class="er entityLabel">IND_PARTITION</text><rect height="22" width="60" y="24" x="0" class="er attributeBoxOdd"></rect><text transform="translate(5,35)" style="dominant-baseline: middle; font-size: 10.2px;" y="0" x="0" id="text-entity-INDPARTITION-84cb569d-2d3c-53ce-86fa-1e467d5ba4b9-attr-1-type" class="er entityLabel">VARCHAR2</text><rect height="22" width="114" y="24" x="60" class="er attributeBoxOdd"></rect><text transform="translate(65,35)" style="dominant-baseline: middle; font-size: 10.2px;" y="0" x="0" id="text-entity-INDPARTITION-84cb569d-2d3c-53ce-86fa-1e467d5ba4b9-attr-1-name" class="er entityLabel">INDEX_OWNER</text><rect height="22" width="162" y="24" x="174" class="er attributeBoxOdd"></rect><text transform="translate(179,35)" style="dominant-baseline: middle; font-size: 10.2px;" y="0" x="0" id="text-entity-INDPARTITION-84cb569d-2d3c-53ce-86fa-1e467d5ba4b9-attr-1-comment" class="er entityLabel">az index tulajdonosa</text><rect height="22" width="60" y="46" x="0" class="er attributeBoxEven"></rect><text transform="translate(5,57)" style="dominant-baseline: middle; font-size: 10.2px;" y="0" x="0" id="text-entity-INDPARTITION-84cb569d-2d3c-53ce-86fa-1e467d5ba4b9-attr-2-type" class="er entityLabel">VARCHAR2</text><rect height="22" width="114" y="46" x="60" class="er attributeBoxEven"></rect><text transform="translate(65,57)" style="dominant-baseline: middle; font-size: 10.2px;" y="0" x="0" id="text-entity-INDPARTITION-84cb569d-2d3c-53ce-86fa-1e467d5ba4b9-attr-2-name" class="er entityLabel">INDEX_NAME</text><rect height="22" width="162" y="46" x="174" class="er attributeBoxEven"></rect><text transform="translate(179,57)" style="dominant-baseline: middle; font-size: 10.2px;" y="0" x="0" id="text-entity-INDPARTITION-84cb569d-2d3c-53ce-86fa-1e467d5ba4b9-attr-2-comment" class="er entityLabel">az index neve</text><rect height="22" width="60" y="68" x="0" class="er attributeBoxOdd"></rect><text transform="translate(5,79)" style="dominant-baseline: middle; font-size: 10.2px;" y="0" x="0" id="text-entity-INDPARTITION-84cb569d-2d3c-53ce-86fa-1e467d5ba4b9-attr-3-type" class="er entityLabel">VARCHAR2</text><rect height="22" width="114" y="68" x="60" class="er attributeBoxOdd"></rect><text transform="translate(65,79)" style="dominant-baseline: middle; font-size: 10.2px;" y="0" x="0" id="text-entity-INDPARTITION-84cb569d-2d3c-53ce-86fa-1e467d5ba4b9-attr-3-name" class="er entityLabel">COMPOSITE</text><rect height="22" width="162" y="68" x="174" class="er attributeBoxOdd"></rect><text transform="translate(179,79)" style="dominant-baseline: middle; font-size: 10.2px;" y="0" x="0" id="text-entity-INDPARTITION-84cb569d-2d3c-53ce-86fa-1e467d5ba4b9-attr-3-comment" class="er entityLabel">YES, ha lokális index, különben NO</text><rect height="22" width="60" y="90" x="0" class="er attributeBoxEven"></rect><text transform="translate(5,101)" style="dominant-baseline: middle; font-size: 10.2px;" y="0" x="0" id="text-entity-INDPARTITION-84cb569d-2d3c-53ce-86fa-1e467d5ba4b9-attr-4-type" class="er entityLabel">VARCHAR2</text><rect height="22" width="114" y="90" x="60" class="er attributeBoxEven"></rect><text transform="translate(65,101)" style="dominant-baseline: middle; font-size: 10.2px;" y="0" x="0" id="text-entity-INDPARTITION-84cb569d-2d3c-53ce-86fa-1e467d5ba4b9-attr-4-name" class="er entityLabel">PARTITION_NAME</text><rect height="22" width="162" y="90" x="174" class="er attributeBoxEven"></rect><text transform="translate(179,101)" style="dominant-baseline: middle; font-size: 10.2px;" y="0" x="0" id="text-entity-INDPARTITION-84cb569d-2d3c-53ce-86fa-1e467d5ba4b9-attr-4-comment" class="er entityLabel">Partíció neve</text><rect height="22" width="60" y="112" x="0" class="er attributeBoxOdd"></rect><text transform="translate(5,123)" style="dominant-baseline: middle; font-size: 10.2px;" y="0" x="0" id="text-entity-INDPARTITION-84cb569d-2d3c-53ce-86fa-1e467d5ba4b9-attr-5-type" class="er entityLabel">NUMBER</text><rect height="22" width="114" y="112" x="60" class="er attributeBoxOdd"></rect><text transform="translate(65,123)" style="dominant-baseline: middle; font-size: 10.2px;" y="0" x="0" id="text-entity-INDPARTITION-84cb569d-2d3c-53ce-86fa-1e467d5ba4b9-attr-5-name" class="er entityLabel">SUBPARTITION_COUNT</text><rect height="22" width="162" y="112" x="174" class="er attributeBoxOdd"></rect><text transform="translate(179,123)" style="dominant-baseline: middle; font-size: 10.2px;" y="0" x="0" id="text-entity-INDPARTITION-84cb569d-2d3c-53ce-86fa-1e467d5ba4b9-attr-5-comment" class="er entityLabel">Alpartíciók száma</text></g><g transform="translate(123.5,20 )" id="entity-PARTTABLE-2066264c-7051-5187-a01b-a24d8a8dfa32"><rect height="75" width="100" y="0" x="0" class="er entityBox"></rect><text transform="translate(50,37.5)" style="dominant-baseline: middle; text-anchor: middle; font-size: 12px;" y="0" x="0" id="text-entity-PARTTABLE-2066264c-7051-5187-a01b-a24d8a8dfa32" class="er entityLabel">PART_TABLE</text></g><g transform="translate(427,235.5 )" id="entity-TABPARTITION-9b2cf676-b706-5e90-98c7-cd464bd09d0e"><rect height="75" width="116" y="0" x="0" class="er entityBox"></rect><text transform="translate(58,37.5)" style="dominant-baseline: middle; text-anchor: middle; font-size: 12px;" y="0" x="0" id="text-entity-TABPARTITION-9b2cf676-b706-5e90-98c7-cd464bd09d0e" class="er entityLabel">TAB_PARTITION</text></g><rect height="14" width="216" y="403.0240478515625" x="83.59628295898438" class="er relationshipLabelBox"></rect><text style="text-anchor: middle; dominant-baseline: middle; font-size: 12px;" y="410.0240478515625" x="191.59628295898438" id="rel9" class="er relationshipLabel">(OWNER - INDEX_OWNER, INDEX_NAME)</text><rect height="14" width="128" y="138" x="109.5" class="er relationshipLabelBox"></rect><text style="text-anchor: middle; dominant-baseline: middle; font-size: 12px;" y="145" x="173.5" id="rel10" class="er relationshipLabel">(OWNER, TABLE_NAME)</text><rect height="14" width="105" y="384.9775695800781" x="422.44012451171875" class="er relationshipLabelBox"></rect><text style="text-anchor: middle; dominant-baseline: middle; font-size: 12px;" y="391.9775695800781" x="474.94012451171875" id="rel11" class="er relationshipLabel">(PARTITION_NAME)</text></svg>