<svg xmlns="http://www.w3.org/2000/svg" viewBox="0 0 400 200">
	<style>@media (prefers-color-scheme:dark){text{fill:#e3e3e3} .axis{stroke:#e3e3e3}}</style>
	<path fill="#045A8D" d="M212.1 20.8a20 20 0 0 0-11.3 4.6 60.7 60.7 0 0 0-9 9.3A162 162 0 0 0 178 56c-4 7.1-7.7 14.2-11.5 21.4v87.3h46v-144h-.4zm34.6 34.8c-4.3-7.5-8.7-15-14.2-21.7a45.7 45.7 0 0 0-9-9 19 19 0 0 0-11-4v143.9h46V77.5c-3.9-7.3-7.7-14.7-11.8-21.9z"/>
	<path fill="#2B8CBE" d="M165.6 79.1c-4.1 8-8.3 15.7-12.6 23.5-4.3 7.5-8.8 14.7-13.8 21.8a106.8 106.8 0 0 1-18.7 20.9v19.5h46V77.5l-.9 1.6zm136 63.7c-6.3-6-11.8-12.7-16.9-19.9-4.9-7-9.3-14.3-13.5-21.8-4.3-7.7-8.5-15.5-12.6-23.3l-.1-.3v87.3h46v-19.5l-3-2.5z"/>
	<path fill="#74A9CF" d="M101.7 157a96.7 96.7 0 0 1-27.1 6.3v1.5h46v-19.5a72 72 0 0 1-19 11.7zm244.3 5.7a75 75 0 0 1-41.6-17.4v19.5h46v-1.6l-4.3-.5z"/>
	<path fill="#BDC9E1" d="M53.5 164.5c-8.3.2-16.6.3-25 .3h46v-1.5c-7 .7-14 1-21 1.2zm341.7.3c-8.2 0-16.3-.1-24.5-.3-6.8-.2-13.5-.6-20.3-1.3v1.6h46-1.2z"/>
	<path stroke="#FFF" d="M74.6 157.5v7.4m45.9-29.9v29.9m46-95.9v95.9m46-144.7v144.7m46-95.9v95.9m45.9-29.9v29.9m46-7.4v7.4"/>
	<g class="axis" fill="none" stroke="#1C1E21" stroke-linejoin="round" stroke-miterlimit="10" stroke-width=".8">
		<path d="M28.5 164.8V20.4m0 144.4h-6.9m6.9-36.1h-6.9m6.9-36.1h-6.9m6.9-36.1h-6.9m6.9-36.1h-6.9"/>
		<path stroke-linecap="round" d="M28.4 164.8h367.9m-367.7 0 24.9-.3c8-.2 15.9-.6 23.8-1.6a74.8 74.8 0 0 0 45.5-19.6c6.2-5.4 11.6-12.1 16.4-19 5-7 9.5-14.2 13.8-21.7A923 923 0 0 0 165.6 79L178 56c4.1-7.4 8.6-14.8 13.8-21.4 2.7-3.5 5.7-6.6 9-9.3a20 20 0 0 1 11.3-4.6c4.2-.3 8.1 1.8 11.5 4.1a48 48 0 0 1 9 9c5.4 6.6 9.8 14.2 14 21.7 4.3 7.3 8.1 14.7 12 22.2 4.1 7.8 8.3 15.6 12.6 23.3 4.2 7.5 8.6 14.8 13.5 21.8 5 7.2 10.6 14 16.9 20a74.3 74.3 0 0 0 44.5 19.8c8.2 1 16.4 1.5 24.6 1.8 8.2.2 16.3.3 24.5.3h1.2"/>
		<path d="M74.6 170.6v-5.8m45.9 5.8v-5.8m46 5.8v-5.8m46 5.8v-5.8m46 5.8v-5.8m45.9 5.8v-5.8m46 5.8v-5.8"/>
	</g>
	<g font-size="12">
		<text transform="rotate(-90 94.2 79)">0,0</text>
		<text transform="rotate(-90 76.1 61)">0,1</text>
		<text transform="rotate(-90 58 42.9)">0,2</text>
		<text transform="rotate(-90 40 24.8)">0,3</text>
		<text transform="rotate(-90 22 6.8)">0,4</text>
		<text x="108" y="185">−2σ</text>
		<text x="155" y="185">−1σ</text>
		<text x="252" y="185">1σ</text>
		<text x="61" y="185">−3σ</text>
		<text x="345" y="185">3σ</text>
		<text x="210.6" y="185.5">0</text>
		<text x="299" y="185">2σ</text>
		<g fill="#e3e3e3">
			<text x="174" y="101">34,1%</text>
			<text x="219" y="101">34,1%</text>
			<text x="264" y="154">13,6%</text>
			<text x="127" y="154">13,6%</text>
		</g>
		<text x="352" y="151">0,1%</text>
		<text x="50" y="151">0,1%</text>
		<text x="90" y="143">2,1%</text>
		<text x="313" y="143">2,1%</text>
	</g>
</svg>
