<svg xmlns="http://www.w3.org/2000/svg" viewBox="0 0 564 345">
    <style>@media (prefers-color-scheme:dark){text{fill:#e3e3e3}.axis{stroke:#e3e3e3}}</style>
    <path class="axis" stroke="#1C1E21" stroke-miterlimit="10" d="M31.5 2.5v343m0-344-4 4m4-4 4 4m-35 310h562m1 0-4-4m4 4-4 4m-528-4v3m107-3v3m106-3v3m107-3v3m106-3v3m-429-42h3m-3-40h3m-3-39h3m-3-40h3m-3-39h3m-3-40h3m-3-39h3"/>
    <g fill="#1C1E21" font-size="12">
        <text x="546" y="331" font-size="16">x</text>
        <text x="136" y="331">1</text>
        <text x="242" y="331">2</text>
        <text x="349" y="331">3</text>
        <text x="455" y="331">4</text>
        <text x="40" y="17" font-size="16">y</text>
        <text x="7" y="281">0.2</text>
        <text x="7" y="241">0.4</text>
        <text x="7" y="202">0.6</text>
        <text x="7" y="162">0.8</text>
        <text x="17" y="123">1</text>
        <text x="7" y="83">1.2</text>
        <text x="7" y="44">1.4</text>
        <text x="17" y="331">0</text>
    </g>
    <g fill="none" stroke-linecap="round" stroke-linejoin="round" stroke-miterlimit="10" stroke-opacity=".8" stroke-width="2.5">
        <path stroke="#D32F2F" d="M0 315 m31.9-98.5 4.2 1.9 4.1 1.8 4.2 1.9 4.2 1.8 4.1 1.7 4.2 1.8 4.1 1.7 4.2 1.6 4.1 1.6 4.2 1.6 4.1 1.6 4.2 1.6L86 239l4.1 1.4 4.2 1.5 4.1 1.4 4.2 1.4 4.1 1.4 4.2 1.3 4.2 1.3 4.1 1.3 4.2 1.3 4.1 1.2 4.2 1.2 4.1 1.2 4.2 1.2 4.2 1.2 4.1 1 4.2 1.2 4.1 1 4.2 1.1 4.1 1 4.2 1 4.2 1 4.1 1 4.2 1 4.1 1 4.2.9 4.1 1 4.2.8 4.2.9 4.1.8 4.2.9 4.1.8 4.2.8 4.1.8 4.2.8 4.2.7 4.1.8 4.2.7 4.1.7 4.2.7 4.1.7 4.2.7 4.2.7 4.1.6 4.2.6 4.1.7 4.2.6 4.1.6 4.2.6 4.1.6 4.2.5 4.2.6 4.1.5 4.2.6 4.1.5 4.2.5 4.1.5 4.2.5 4.2.5 4.1.5 4.2.4 4.1.5 4.2.4 4.1.5 4.2.4 4.2.4 4.1.5 4.2.4 4.1.4 4.2.4 4.1.3 4.2.4 4.2.4 4.1.4 4.2.3 4.1.4 4.2.3 4.1.3 4.2.4 4.2.3 4.1.3 4.2.3 4.1.3 4.2.3 4.1.3 4.2.3 4.2.3 4.1.2 4.2.3 4.1.3 4.2.2 4.1.3 4.2.2 4.1.3 4.2.2 4.2.3 4.1.2 4.2.2 4.1.3 4.2.2 4.1.2 4.2.2 4.2.2 4.1.2 4.2.2 4.1.2 4.2.2 4.1.2 4.2.2 4.2.1 4.1.2 4.2.2 4.1.1 4.2.2 4.1.2 4.2.1"/>
        <path stroke="#2E7D32" d="M0 315 m31.9-197.1 4.2 7.5 4.1 7.3 4.2 7 4.2 6.7 4.1 6.5 4.2 6.2 4.1 6 4.2 5.7 4.1 5.5 4.2 5.3 4.1 5.1 4.2 5 4.2 4.7 4.1 4.5 4.2 4.4 4.1 4.2 4.2 4 4.1 4 4.2 3.7 4.2 3.6 4.1 3.4 4.2 3.4 4.1 3.2 4.2 3 4.1 3 4.2 2.8 4.2 2.8 4.1 2.6 4.2 2.5 4.1 2.5 4.2 2.3 4.1 2.2 4.2 2.2 4.2 2 4.1 2 4.2 2 4.1 1.9 4.2 1.7 4.1 1.8 4.2 1.6 4.2 1.6 4.1 1.5 4.2 1.5 4.1 1.4 4.2 1.3 4.1 1.3 4.2 1.3 4.2 1.2 4.1 1.2 4.2 1 4.1 1.1 4.2 1 4.1 1 4.2 1 4.2 1 4.1.8 4.2.9 4.1.8 4.2.8 4.1.7 4.2.7 4.1.7 4.2.7 4.2.6 4.1.7 4.2.6 4.1.5 4.2.6 4.1.5 4.2.5 4.2.5 4.1.5 4.2.4 4.1.5 4.2.4 4.1.4 4.2.4 4.2.4 4.1.3 4.2.4 4.1.3 4.2.3 4.1.3 4.2.3 4.2.3 4.1.3 4.2.2 4.1.3 4.2.2 4.1.3 4.2.2 4.2.2 4.1.2 4.2.2 4.1.2 4.2.2 4.1.2 4.2.1 4.2.2 4.1.2 4.2.1 4.1.2 4.2.1 4.1.1 4.2.2h4.1l4.2.2 4.2.1 4.1.1 4.2.1 4.1.1 4.2.1 4.1.1 4.2.1 4.2.1 4.1.1h4.2l4.1.2h4.2l4.1.1h4.2l4.2.1 4.1.1h4.2l4.1.1h4.2l4.1.1 4.2.1"/>
        <path stroke="#1565C0" d="M0 315 m31.9-295.7 2.1 8.6 2 8.2 2.2 8.1 2 7.8 2.1 7.6 2.1 7.4 2 7.1 2.2 7 2 6.8 2.1 6.5 2 6.4 2.2 6.2 2 6 2.1 5.8 2.1 5.7 2 5.5 2.2 5.3 2 5.2 4.2 10 4.1 9.3 4.2 8.8 4.2 8.4 4.1 7.8 4.2 7.4 4.1 7 4.2 6.6 4.1 6.2 4.2 5.9 4.2 5.5 4.1 5.2 4.2 5 4.1 4.6 4.2 4.4 4.1 4 4.2 4 4.2 3.6 4.1 3.5 4.2 3.3 4.1 3 4.2 3 4.1 2.7 4.2 2.6 4.2 2.4 4.1 2.3 4.2 2.2 4.1 2 4.2 2 4.1 1.7 4.2 1.7 4.2 1.7 4.1 1.5 4.2 1.4 4.1 1.4 4.2 1.3 4.1 1.2 4.2 1.1 4.2 1 4.1 1 4.2 1 4.1 1 4.2.8 4.1.8 4.2.7 4.2.7 4.1.7 4.2.6 4.1.6 4.2.6 4.1.5 4.2.5 4.1.5 4.2.5 4.2.4 4.1.4 4.2.3 4.1.4 4.2.3 4.1.3 4.2.3 4.2.3 4.1.3 4.2.2 4.1.3 4.2.2 4.1.2 4.2.2 4.2.2 4.1.1 4.2.2 4.1.2 4.2.1 4.1.1 4.2.2 4.2.1 4.1.1 4.2.1 4.1.1 4.2.1 4.1.1 4.2.1h4.2l4.1.2h4.2l4.1.1h4.2l4.1.1h4.2l4.2.1h4.1l4.2.1h4.1l4.2.1h4.1l4.2.1h8.3l4.2.1h12.4l4.2.1H510l4.1.1H535l4.2.1H564"/>
    </g>
</svg>
