<svg xmlns="http://www.w3.org/2000/svg" viewBox="0 0 564 345">
    <style>@media (prefers-color-scheme:dark){text{fill:#e3e3e3}.axis{stroke:#e3e3e3}}</style>
    <path class="axis" stroke="#1C1E21" stroke-miterlimit="10" d="M31.5 2.5v343m0-344-4 4m4-4 4 4m-35 311h562m1 0-4-4m4 4-4 4m-528-4v3m107-3v3m106-3v3m107-3v3m106-3v3m-429-61h3m-3-57h3m-3-58h3m-3-57h3m-3-58h3"/>
    <g fill="#1C1E21" font-size="12">
        <text x="546" y="312" font-size="16">k</text>
        <text x="136" y="332">1</text>
        <text x="242" y="332">2</text>
        <text x="349" y="332">3</text>
        <text x="455" y="332">4</text>
        <text x="36" y="17" font-size="16">P(X&lt;k)</text>
        <text x="7" y="263">0.2</text>
        <text x="7" y="206">0.4</text>
        <text x="7" y="148">0.6</text>
        <text x="7" y="91">0.8</text>
        <text x="17" y="33">1</text>
        <text x="17" y="332">0</text>
    </g>
    <g fill="none" stroke-linecap="round" stroke-linejoin="round" stroke-miterlimit="10" stroke-opacity=".8" stroke-width="2.5">
        <path stroke="#D32F2F" d="m31.9 316.2 4.2-5.5 4.1-5.5 4.2-5.3 4.2-5.3 4.1-5.1 4.2-5 4.1-5 4.2-4.8 4.1-4.8 4.2-4.7 4.1-4.5 4.2-4.5 4.2-4.4 4.1-4.3 4.2-4.3 4.1-4.1 4.2-4 4.1-4 4.2-4 4.2-3.8 4.1-3.8 4.2-3.7 4.1-3.6 4.2-3.5 4.1-3.5 4.2-3.4 4.2-3.4 4.1-3.3 4.2-3.2 4.1-3.1 4.2-3.1 4.1-3 4.2-3 4.2-3 4.1-2.8 4.2-2.8 4.1-2.8 4.2-2.7 4.1-2.6 4.2-2.6 4.2-2.6 4.1-2.5 4.2-2.4 4.1-2.4 4.2-2.4 4.1-2.3 4.2-2.2 4.2-2.3 4.1-2.1 4.2-2.2 4.1-2 4.2-2.1 4.1-2 4.2-2 4.2-2 4.1-1.8 4.2-2 4.1-1.7 4.2-1.8 4.1-1.8 4.2-1.7 4.1-1.7 4.2-1.7 4.2-1.6 4.1-1.6 4.2-1.5 4.1-1.6 4.2-1.5 4.1-1.4 4.2-1.5 4.2-1.4 4.1-1.4 4.2-1.4 4.1-1.3 4.2-1.3 4.1-1.3 4.2-1.3 4.2-1.2 4.1-1.2 4.2-1.2 4.1-1.2 4.2-1.1 4.1-1.1 4.2-1.1 4.2-1 4.1-1.2 4.2-1 4.1-1 4.2-1 4.1-1 4.2-1 4.2-.9 4.1-.9 4.2-.9 4.1-.9 4.2-.9 4.1-.8 4.2-.8 4.2-.9 4.1-.8 4.2-.8 4.1-.7 4.2-.8 4.1-.7 4.2-.8 4.1-.7 4.2-.7 4.2-.7 4.1-.6 4.2-.7 4.1-.7 4.2-.6 4.1-.6 4.2-.6 4.2-.6 4.1-.6 4.2-.6 4.1-.6 4.2-.5 4.1-.6 4.2-.5 4.2-.5 4.1-.5 4.2-.5 4.1-.5 4.2-.5 4.1-.5 4.2-.5"/>
        <path stroke="#2E7D32" d="m31.9 316.2 2.1-5.5 2-5.5 2.2-5.3 2-5.3 2.1-5.1 2.1-5 4.2-9.8 4.1-9.5 4.2-9 4.1-8.7 4.2-8.4 4.1-8 4.2-7.8 4.1-7.5 4.2-7.1 4.2-7 4.1-6.6 4.2-6.3 4.1-6.2 4.2-5.9 4.1-5.6 4.2-5.5 4.2-5.2 4.1-5 4.2-5 4.1-4.6 4.2-4.5 4.1-4.3 4.2-4.1 4.2-4 4.1-3.8 4.2-3.7 4.1-3.6 4.2-3.4 4.1-3.3 4.2-3.1 4.2-3 4.1-3 4.2-2.8 4.1-2.7L190 94l4.1-2.5 4.2-2.4 4.2-2.3 4.1-2.2 4.2-2.2 4.1-2 4.2-2 4.1-1.9 4.2-1.8 4.2-1.8 4.1-1.6 4.2-1.7 4.1-1.5 4.2-1.5 4.1-1.5 4.2-1.4 4.2-1.3 4.1-1.3 4.2-1.2 4.1-1.2 4.2-1.2 4.1-1 4.2-1.1 4.1-1 4.2-1 4.2-1 4.1-.9 4.2-.8 4.1-.9 4.2-.8 4.1-.7 4.2-.8 4.2-.7 4.1-.7 4.2-.6 4.1-.7 4.2-.6 4.1-.6 4.2-.5 4.2-.6 4.1-.5 4.2-.5 4.1-.5 4.2-.5 4.1-.4 4.2-.4 4.2-.5 4.1-.4 4.2-.3 4.1-.4 4.2-.4 4.1-.3 4.2-.3 4.2-.3 4.1-.3 4.2-.3 4.1-.3 4.2-.3 4.1-.2 4.2-.3 4.2-.2 4.1-.3 4.2-.2 4.1-.2 4.2-.2 4.1-.2 4.2-.2 4.1-.2 4.2-.2 4.2-.1 4.1-.2 4.2-.1 4.1-.2 4.2-.1 4.1-.2 4.2-.1 4.2-.1 4.1-.2h4.2l4.1-.2 4.2-.1 4.1-.1 4.2-.1 4.2-.1 4.1-.1h4.2l4.1-.2h4.2l4.1-.1 4.2-.1"/>
        <path stroke="#1565C0" d="M31.9 316.2 34 308l2-8 2.2-7.8 2-7.6 2.1-7.4 2.1-7.2 2-7 2.2-6.7 2-6.6 2.1-6.4 2-6.2 2.2-6 2-5.8 2.1-5.7 2.1-5.5 2-5.3 2.2-5.2 2-5 4.2-9.7 4.1-9.1 4.2-8.6L86 163l4.1-7.7 4.2-7.2 4.1-6.8 4.2-6.4 4.1-6 4.2-5.7 4.2-5.4 4.1-5 4.2-4.8 4.1-4.5 4.2-4.3 4.1-4 4.2-3.8 4.2-3.6 4.1-3.3 4.2-3.2 4.1-3 4.2-2.8 4.1-2.7 4.2-2.5 4.2-2.3 4.1-2.3 4.2-2 4.1-2 4.2-2L194 58l4.2-1.7 4.2-1.5 4.1-1.5 4.2-1.4 4.1-1.3 4.2-1.3 4.1-1.1 4.2-1.1 4.2-1 4.1-1 4.2-1 4.1-.9 4.2-.8 4.1-.8 4.2-.7 4.2-.7 4.1-.6 4.2-.7 4.1-.5 4.2-.6 4.1-.5 4.2-.5 4.1-.4 4.2-.5 4.2-.4 4.1-.4 4.2-.3 4.1-.4 4.2-.3 4.1-.3 4.2-.3 4.2-.3 4.1-.2 4.2-.3 4.1-.2 4.2-.2 4.1-.2 4.2-.2 4.2-.2 4.1-.1 4.2-.2 4.1-.2 4.2-.1 4.1-.1 4.2-.2h4.2l4.1-.2h4.2l4.1-.2h4.2l4.1-.2h4.2l4.2-.1 4.1-.1h4.2l4.1-.2h8.3l4.2-.1h4.2l4.1-.1h4.2l4.1-.1h4.2l4.1-.1h8.3l4.2-.1h12.5l4.1-.1h12.5l4.2-.1h16.6l4.1-.1H564"/>
    </g>
</svg>
