<svg xmlns="http://www.w3.org/2000/svg" viewBox="0 0 642 330">
    <style>@media (prefers-color-scheme:dark){text{fill:#e3e3e3} .axis{stroke:#e3e3e3}}</style>
    <path stroke="silver" stroke-dasharray="9 8" stroke-linejoin="round" d="M320.5.5v302m0-302v302M.5 27.5h642m-642 0h642m-642 55h642m-642 55h642m-642 55h642m-642 55h642"/>
    <path stroke="#252525" d="M29.5 2.5v300m0-301-4 4m4-4 4 4m-33 297h640m1 0-4-4m4 4-4 4" class="axis"/>
    <g fill="#1C1E21" font-size="12">
        <text x="624" y="298" font-size="16">k</text>
        <text x="24" y="318">–5</text>
        <text x="82" y="318">–4</text>
        <text x="140" y="318">–3</text>
        <text x="199" y="318">–2</text>
        <text x="257" y="318">–1</text>
        <text x="318" y="318">0</text>
        <text x="377" y="318">1</text>
        <text x="435" y="318">2</text>
        <text x="494" y="318">3</text>
        <text x="552" y="318">4</text>
        <text x="610" y="318">5</text>
        <text x="34" y="17" font-size="16">P(X&lt;k)</text>
        <text x="15" y="300">0</text>
        <text x="5" y="252">0,2</text>
        <text x="5" y="197">0,4</text>
        <text x="5" y="142">0,6</text>
        <text x="5" y="87">0,8</text>
        <text x="15" y="32">1</text>
    </g>
    <g fill="none" stroke-linecap="round" stroke-linejoin="round" stroke-opacity=".8" stroke-width="2.5">
        <path stroke="#1565C0" d="M0 302.5h230.7l5-.1 5-.2 5-.2 5-.5 5.1-.7 5-1.2 5-1.8 5-2.8 5-4 5-5.6 5-7.5 5.1-9.6 2.5-5.8 2.5-6.3 2.5-7 2.5-7.5 2.5-8.1 2.6-8.7 2.5-9.2 2.5-9.6 2.5-10 1.2-5 1.3-5.1 1.2-5.2 1.3-5.3 1.2-5.2 1.3-5.3 1.3-5.3 1.2-5.2 1.3-5.3 1.2-5.2 1.3-5.1 1.2-5 2.5-10 2.5-9.6 2.5-9.2 2.6-8.7 2.5-8.1 2.5-7.6 2.5-7 2.5-6.2 2.5-5.8 5-9.6 5-7.5 5-5.6 5-4 5-2.8 5-1.8 5.1-1.2 5-.7 5-.5 5-.2 5-.2h20.1l5-.1H642"/>
        <path stroke="#D32F2F" d="M0 302.5h120.3l5-.1h5.1l5-.1h5l5-.2h5l5-.2 5.1-.2 5-.3 5-.3 5-.3 5-.5 5-.6 5-.7 5.1-.9 5-1 5-1.2 5-1.5 5-1.7 5-2 5.1-2.3 5-2.7 5-3 5-3.5 5-3.8 5-4.4 5.1-4.8 5-5.3 5-5.8 5-6.2 5-6.8 5-7.2 5-7.7 5.1-8 5-8.5 5-8.7 5-9 5-9.2 5-9.4 5.1-9.4 5-9.4 5-9.4 5-9.2 5-9 5-8.7 5-8.5 5.1-8 5-7.7 5-7.2 5-6.8 5-6.2 5-5.8 5.1-5.3 5-4.8 5-4.4 5-3.8 5-3.5 5-3 5.1-2.7 5-2.3 5-2 5-1.7 5-1.5 5-1.2 5-1 5.1-.9 5-.7 5-.6 5-.5 5-.3 5-.3 5.1-.3 5-.2 5-.1 5-.1 5-.1 5-.1h10.1l5-.1h40.1l5-.1H642"/>
        <path stroke="#DB6114" d="m0 300.6 5-.2 5-.3 5-.2 5-.3 5-.3 5-.3 5.1-.4 5-.4 5-.4 5-.5 5-.5 5-.6 5.1-.6 5-.6 5-.7 5-.7 5-.8 5-.9 5.1-1 5-.9 5-1 5-1.1 5-1.2 5-1.3 5-1.3 5.1-1.4 5-1.5 5-1.6 5-1.7 5-1.7 5-1.8 5.1-2 5-2 5-2.1 5-2.2 5-2.4 5-2.4 5-2.5 5.1-2.6 5-2.7 5-2.8 5-2.9 5-3 5-3 5.1-3.3 5-3.2 5-3.4 5-3.5 5-3.5 5-3.6 5.1-3.7 5-3.7 5-3.9 5-3.9 5-3.9 5-4 5-4 5.1-4.1 5-4.1 5-4.2 5-4.2 5-4.2 5-4.2 5.1-4.2 5-4.2 5-4.2 5-4.2 5-4.2 5-4.2 5-4 5.1-4.2 5-4 5-4 5-4 5-3.8 5-3.9 5.1-3.7 5-3.7 5-3.6 5-3.5 5-3.5 5-3.4 5.1-3.2 5-3.2 5-3.1 5-3 5-2.9 5-2.8 5-2.7 5.1-2.6 5-2.5 5-2.4 5-2.4 5-2.2 5-2 5.1-2.1 5-2 5-1.8 5-1.7 5-1.7 5-1.6 5-1.5 5.1-1.4 5-1.3 5-1.3 5-1.2 5-1 5-1.1 5.1-1 5-.9 5-.9 5-.8 5-.7 5-.7 5.1-.6 5-.6 5-.6 5-.5 5-.5 5-.4 5-.4 5.1-.4 5-.3 5-.3 5-.3 5-.2 5-.3 5.1-.2"/>
        <path stroke="#2E7D32" d="M0 302.5h60.1l5.1-.1h5l5-.1 5-.2 5-.1 5-.3 5.1-.3 5-.5 5-.7 5-.8 5-1.2 5-1.5 5-1.9 5.1-2.4 5-3 5-3.7 5-4.4 5-5.2 5-6.2 5.1-7.1 5-8.1 5-9 2.5-5 2.5-5 2.6-5.4 2.5-5.6 2.5-5.7 2.5-6 2.5-6 2.5-6.3 2.5-6.4 2.5-6.4 2.5-6.6 2.5-6.6 2.5-6.7 2.5-6.6 2.5-6.7 2.6-6.6 2.5-6.6 2.5-6.4 2.5-6.4 2.5-6.2 2.5-6 2.5-6 2.5-5.7 2.5-5.6 2.5-5.3 2.5-5.1 5-9.5 5-8.5 5-7.6 5.1-6.6 5-5.6 5-4.8 5-4 5-3.3 5-2.7 5-2.1 5.1-1.7 5-1.3 5-1 5-.7 5-.6 5-.4 5.1-.3 5-.2 5-.1 5-.1h5l5-.1h25.1l5-.1H642"/>
    </g>
</svg>
