<svg xmlns="http://www.w3.org/2000/svg" xmlns:xlink="http://www.w3.org/1999/xlink" viewBox="0 0 288 230">
  <style>
    @media (prefers-color-scheme: dark) {
      path:not(#b) {
      fill: rgb(227, 227, 227);
      stroke: rgb(227, 227, 227);
      }
    }
  </style>
  <rect fill="transparent" stroke="#fff" stroke-linecap="square" stroke-linejoin="round"/>
  <defs>
    <path id="b" d="M0 3a3 3 0 1 0 0-6 3 3 0 0 0 0 6z"/>
  </defs>
  <defs>
    <clipPath id="a">
      <path d="M49 16.1h227.5v184.3H49z"/>
    </clipPath>
  </defs>
  <g fill="orange" stroke="#000" stroke-linejoin="round" stroke-width=".5" clip-path="url(#a)">
    <use xlink:href="#b" x="59.3" y="30.9"/>
    <use xlink:href="#b" x="69.6" y="30.9"/>
    <use xlink:href="#b" x="80" y="115.7"/>
    <use xlink:href="#b" x="90.3" y="172.2"/>
    <use xlink:href="#b" x="100.7" y="193.4"/>
    <use xlink:href="#b" x="111" y="199"/>
    <use xlink:href="#b" x="121.4" y="200.2"/>
    <use xlink:href="#b" x="131.7" y="200.4"/>
    <use xlink:href="#b" x="142" y="200.4"/>
    <use xlink:href="#b" x="152.4" y="200.4"/>
    <use xlink:href="#b" x="162.7" y="200.4"/>
    <use xlink:href="#b" x="173.1" y="200.4"/>
    <use xlink:href="#b" x="183.4" y="200.4"/>
    <use xlink:href="#b" x="193.7" y="200.4"/>
    <use xlink:href="#b" x="204.1" y="200.4"/>
    <use xlink:href="#b" x="214.4" y="200.4"/>
    <use xlink:href="#b" x="224.8" y="200.4"/>
    <use xlink:href="#b" x="235.1" y="200.4"/>
    <use xlink:href="#b" x="245.5" y="200.4"/>
    <use xlink:href="#b" x="255.8" y="200.4"/>
    <use xlink:href="#b" x="266.1" y="200.4"/>
  </g>
  <g fill="purple" stroke="#000" stroke-linejoin="round" stroke-width=".5" clip-path="url(#a)">
    <use xlink:href="#b" x="59.3" y="192"/>
    <use xlink:href="#b" x="69.6" y="166.7"/>
    <use xlink:href="#b" x="80" y="132.9"/>
    <use xlink:href="#b" x="90.3" y="110.4"/>
    <use xlink:href="#b" x="100.7" y="110.4"/>
    <use xlink:href="#b" x="111" y="128.4"/>
    <use xlink:href="#b" x="121.4" y="152.4"/>
    <use xlink:href="#b" x="131.7" y="173"/>
    <use xlink:href="#b" x="142" y="186.7"/>
    <use xlink:href="#b" x="152.4" y="194.4"/>
    <use xlink:href="#b" x="162.7" y="198"/>
    <use xlink:href="#b" x="173.1" y="199.6"/>
    <use xlink:href="#b" x="183.4" y="200.2"/>
    <use xlink:href="#b" x="193.7" y="200.4"/>
    <use xlink:href="#b" x="204.1" y="200.4"/>
    <use xlink:href="#b" x="214.4" y="200.4"/>
    <use xlink:href="#b" x="224.8" y="200.4"/>
    <use xlink:href="#b" x="235.1" y="200.4"/>
    <use xlink:href="#b" x="245.5" y="200.4"/>
    <use xlink:href="#b" x="255.8" y="200.4"/>
    <use xlink:href="#b" x="266.1" y="200.4"/>
  </g>
  <g fill="#add8e6" stroke="#000" stroke-linejoin="round" stroke-width=".5" clip-path="url(#a)">
    <use xlink:href="#b" x="59.3" y="200.4"/>
    <use xlink:href="#b" x="69.6" y="200.2"/>
    <use xlink:href="#b" x="80" y="199.4"/>
    <use xlink:href="#b" x="90.3" y="197"/>
    <use xlink:href="#b" x="100.7" y="191.7"/>
    <use xlink:href="#b" x="111" y="183"/>
    <use xlink:href="#b" x="121.4" y="171.4"/>
    <use xlink:href="#b" x="131.7" y="158.9"/>
    <use xlink:href="#b" x="142" y="148.6"/>
    <use xlink:href="#b" x="152.4" y="142.8"/>
    <use xlink:href="#b" x="162.7" y="142.8"/>
    <use xlink:href="#b" x="173.1" y="148"/>
    <use xlink:href="#b" x="183.4" y="156.8"/>
    <use xlink:href="#b" x="193.7" y="166.9"/>
    <use xlink:href="#b" x="204.1" y="176.5"/>
    <use xlink:href="#b" x="214.4" y="184.4"/>
    <use xlink:href="#b" x="224.8" y="190.4"/>
    <use xlink:href="#b" x="235.1" y="194.6"/>
    <use xlink:href="#b" x="245.5" y="197.2"/>
    <use xlink:href="#b" x="255.8" y="198.7"/>
    <use xlink:href="#b" x="266.1" y="199.6"/>
  </g>
  <defs>
    <path id="c" d="M0 0v-4"/>
  </defs>
  <use xlink:href="#c" x="59.3" y="200.4" fill="none" stroke="#000" stroke-linejoin="round" stroke-width=".5"/>
  <defs>
    <path id="d" d="M0 0v4"/>
  </defs>
  <use xlink:href="#d" x="59.3" y="16.1" fill="none" stroke="#000" stroke-linejoin="round" stroke-width=".5"/>
  <defs>
    <path id="e" d="M31.8-66.4q-7.6 0-11.5 7.5-3.8 7.5-3.8 22.5t3.8 22.5q3.9 7.5 11.5 7.5 7.7 0 11.5-7.5T47-36.4q0-15-3.8-22.5t-11.5-7.5m0-7.8q12.2 0 18.7 9.7T57-36.4Q57-18 50.5-8.3 44 1.4 31.8 1.4 19.5 1.4 13-8.3t-6.5-28q0-18.5 6.5-28.2 6.4-9.7 18.7-9.7"/>
  </defs>
  <use xlink:href="#e" transform="matrix(.12 0 0 .12 56.3 213.4)"/>
  <use xlink:href="#c" x="111" y="200.4" fill="none" stroke="#000" stroke-linejoin="round" stroke-width=".5"/>
  <use xlink:href="#d" x="111" y="16.1" fill="none" stroke="#000" stroke-linejoin="round" stroke-width=".5"/>
  <defs>
    <path id="f" d="M10.8-73h38.7v8.4H19.8v17.9q2.2-.8 4.3-1.1 2.2-.4 4.3-.4 12.2 0 19.4 6.7 7 6.7 7 18.1 0 11.8-7.2 18.3-7.4 6.5-20.7 6.5-4.6 0-9.4-.8-4.7-.7-9.8-2.3v-10q4.4 2.5 9.1 3.6 4.7 1.2 9.9 1.2 8.5 0 13.4-4.4 5-4.5 5-12 0-7.7-5-12.1Q35-40 26.7-40q-4 0-7.9.9-4 .9-8 2.7z"/>
  </defs>
  <use xlink:href="#f" transform="matrix(.12 0 0 .12 108.2 213.2)"/>
  <use xlink:href="#c" x="162.7" y="200.4" fill="none" stroke="#000" stroke-linejoin="round" stroke-width=".5"/>
  <use xlink:href="#d" x="162.7" y="16.1" fill="none" stroke="#000" stroke-linejoin="round" stroke-width=".5"/>
  <defs>
    <path id="g" d="M12.4-8.3h16.1v-55.6L11-60.4v-9l17.4-3.5h9.9v64.6h16V0H12.5z"/>
  </defs>
  <g transform="matrix(.12 0 0 .12 156.1 213.4)">
    <use xlink:href="#g"/>
    <use xlink:href="#e" x="63.6"/>
  </g>
  <use xlink:href="#c" x="214.4" y="200.4" fill="none" stroke="#000" stroke-linejoin="round" stroke-width=".5"/>
  <use xlink:href="#d" x="214.4" y="16.1" fill="none" stroke="#000" stroke-linejoin="round" stroke-width=".5"/>
  <g transform="matrix(.12 0 0 .12 208 213.2)">
    <use xlink:href="#g"/>
    <use xlink:href="#f" x="63.6"/>
  </g>
  <use xlink:href="#c" x="266.1" y="200.4" fill="none" stroke="#000" stroke-linejoin="round" stroke-width=".5"/>
  <use xlink:href="#d" x="266.1" y="16.1" fill="none" stroke="#000" stroke-linejoin="round" stroke-width=".5"/>
  <defs>
    <path id="h" d="M19.2-8.3h34.4V0H7.3v-8.3l15.3-15.6q9.7-9.8 12.2-12.6 4.7-5.3 6.6-9 2-3.7 2-7.3 0-5.8-4.2-9.5-4-3.6-10.6-3.6-4.6 0-9.8 1.6-5.1 1.6-11 4.9v-10q6-2.4 11.1-3.6 5.2-1.2 9.5-1.2 11.4 0 18 5.7 6.8 5.6 6.8 15 0 4.6-1.7 8.6-1.6 4-6 9.5l-7.9 8.2L19.2-8.3"/>
  </defs>
  <g transform="matrix(.12 0 0 .12 259.3 213.4)">
    <use xlink:href="#h"/>
    <use xlink:href="#e" x="63.6"/>
  </g>
  <defs>
    <path id="i" d="M9-76h9.1v45L45-54.7h11.5L27.4-29 57.6 0H46L18.1-26.7V0h-9z"/>
  </defs>
  <use xlink:href="#i" transform="matrix(.12 0 0 .12 159.8 227.7)"/>
  <defs>
    <path id="j" d="M0 0h4"/>
  </defs>
  <use xlink:href="#j" x="49" y="200.4" fill="none" stroke="#000" stroke-linejoin="round" stroke-width=".5"/>
  <defs>
    <path id="k" d="M0 0h-4"/>
  </defs>
  <use xlink:href="#k" x="276.5" y="200.4" fill="none" stroke="#000" stroke-linejoin="round" stroke-width=".5"/>
  <defs>
    <path id="l" d="M10.7-12.4H21V0H10.7z"/>
  </defs>
  <g transform="matrix(.12 0 0 .12 19.8 204.8)">
    <use xlink:href="#e"/>
    <use xlink:href="#l" x="63.6"/>
    <use xlink:href="#e" x="95.4"/>
    <use xlink:href="#e" x="159"/>
  </g>
  <use xlink:href="#j" x="49" y="177.4" fill="none" stroke="#000" stroke-linejoin="round" stroke-width=".5"/>
  <use xlink:href="#k" x="276.5" y="177.4" fill="none" stroke="#000" stroke-linejoin="round" stroke-width=".5"/>
  <g transform="matrix(.12 0 0 .12 20 181.8)">
    <use xlink:href="#e"/>
    <use xlink:href="#l" x="63.6"/>
    <use xlink:href="#e" x="95.4"/>
    <use xlink:href="#f" x="159"/>
  </g>
  <use xlink:href="#j" x="49" y="154.4" fill="none" stroke="#000" stroke-linejoin="round" stroke-width=".5"/>
  <use xlink:href="#k" x="276.5" y="154.4" fill="none" stroke="#000" stroke-linejoin="round" stroke-width=".5"/>
  <g transform="matrix(.12 0 0 .12 19.8 158.7)">
    <use xlink:href="#e"/>
    <use xlink:href="#l" x="63.6"/>
    <use xlink:href="#g" x="95.4"/>
    <use xlink:href="#e" x="159"/>
  </g>
  <use xlink:href="#j" x="49" y="131.3" fill="none" stroke="#000" stroke-linejoin="round" stroke-width=".5"/>
  <use xlink:href="#k" x="276.5" y="131.3" fill="none" stroke="#000" stroke-linejoin="round" stroke-width=".5"/>
  <g transform="matrix(.12 0 0 .12 20 135.7)">
    <use xlink:href="#e"/>
    <use xlink:href="#l" x="63.6"/>
    <use xlink:href="#g" x="95.4"/>
    <use xlink:href="#f" x="159"/>
  </g>
  <use xlink:href="#j" x="49" y="108.3" fill="none" stroke="#000" stroke-linejoin="round" stroke-width=".5"/>
  <use xlink:href="#k" x="276.5" y="108.3" fill="none" stroke="#000" stroke-linejoin="round" stroke-width=".5"/>
  <g transform="matrix(.12 0 0 .12 19.8 112.7)">
    <use xlink:href="#e"/>
    <use xlink:href="#l" x="63.6"/>
    <use xlink:href="#h" x="95.4"/>
    <use xlink:href="#e" x="159"/>
  </g>
  <use xlink:href="#j" x="49" y="85.2" fill="none" stroke="#000" stroke-linejoin="round" stroke-width=".5"/>
  <use xlink:href="#k" x="276.5" y="85.2" fill="none" stroke="#000" stroke-linejoin="round" stroke-width=".5"/>
  <g transform="matrix(.12 0 0 .12 20 89.6)">
    <use xlink:href="#e"/>
    <use xlink:href="#l" x="63.6"/>
    <use xlink:href="#h" x="95.4"/>
    <use xlink:href="#f" x="159"/>
  </g>
  <use xlink:href="#j" x="49" y="62.2" fill="none" stroke="#000" stroke-linejoin="round" stroke-width=".5"/>
  <use xlink:href="#k" x="276.5" y="62.2" fill="none" stroke="#000" stroke-linejoin="round" stroke-width=".5"/>
  <defs>
    <path id="m" d="M40.6-39.3q7 1.5 11 6.3t4 11.8q0 10.8-7.4 16.7-7.4 6-21.1 6-4.6 0-9.4-1-4.9-.9-10-2.7v-9.5q4 2.4 8.9 3.6Q21.5-7 26.8-7q9.3 0 14.1-3.6 4.9-3.7 4.9-10.7 0-6.4-4.5-10Q36.8-35 28.7-35h-8.5v-8h9q7.2 0 11-3 3.9-2.8 3.9-8.3 0-5.6-4-8.6t-11.4-3q-4 0-8.7.9-4.6.8-10.2 2.7v-8.8q5.6-1.6 10.5-2.3 5-.8 9.3-.8 11.2 0 17.8 5 6.5 5.2 6.5 13.9 0 6-3.5 10.2-3.4 4.2-9.8 5.8"/>
  </defs>
  <g transform="matrix(.12 0 0 .12 19.8 66.6)">
    <use xlink:href="#e"/>
    <use xlink:href="#l" x="63.6"/>
    <use xlink:href="#m" x="95.4"/>
    <use xlink:href="#e" x="159"/>
  </g>
  <use xlink:href="#j" x="49" y="39.2" fill="none" stroke="#000" stroke-linejoin="round" stroke-width=".5"/>
  <use xlink:href="#k" x="276.5" y="39.2" fill="none" stroke="#000" stroke-linejoin="round" stroke-width=".5"/>
  <g transform="matrix(.12 0 0 .12 20 43.5)">
    <use xlink:href="#e"/>
    <use xlink:href="#l" x="63.6"/>
    <use xlink:href="#m" x="95.4"/>
    <use xlink:href="#f" x="159"/>
  </g>
  <use xlink:href="#j" x="49" y="16.1" fill="none" stroke="#000" stroke-linejoin="round" stroke-width=".5"/>
  <use xlink:href="#k" x="276.5" y="16.1" fill="none" stroke="#000" stroke-linejoin="round" stroke-width=".5"/>
  <defs>
    <path id="n" d="m37.8-64.3-25 39h25zM35.2-73h12.4v47.5H58v8.2H47.6V0h-9.8v-17.2h-33v-9.5z"/>
  </defs>
  <g transform="matrix(.12 0 0 .12 19.8 20.5)">
    <use xlink:href="#e"/>
    <use xlink:href="#l" x="63.6"/>
    <use xlink:href="#n" x="95.4"/>
    <use xlink:href="#e" x="159"/>
  </g>
  <defs>
    <path id="o" d="M19.7-64.8v27.4H32q6.9 0 10.6-3.6 3.8-3.5 3.8-10.1t-3.8-10.1q-3.7-3.6-10.6-3.6zm-9.9-8.1h22.3q12.2 0 18.5 5.5Q57-61.8 57-51q0 10.8-6.3 16.3t-18.5 5.5H19.7V0H9.8z"/>
    <path id="p" d="M31-75.9q-6.5 11.2-9.7 22.2-3.2 11-3.2 22.3T21.3-9Q24.5 2 31 13.2h-7.8q-7.3-11.5-11-22.6-3.6-11-3.6-22 0-10.9 3.6-22 3.6-11 11-22.5z"/>
    <path id="q" d="M6.3-73h10.6L35-45.7l18.2-27.1h10.6L40.4-38l25 38H54.8L34.3-31 13.6 0H3l26-39z"/>
    <path id="r" d="M10.6-45.4h62.6v8.2H10.6zm0 20h62.6v8.2H10.6z"/>
    <path id="s" d="M8-75.9h7.8q7.3 11.5 11 22.6 3.6 11 3.6 22 0 10.8-3.6 22-3.7 11-11 22.5H8Q14.5 2 17.7-9.1q3.2-11 3.2-22.3t-3.2-22.3q-3.2-11-9.7-22.2"/>
  </defs>
  <g transform="matrix(0 -.12 .12 0 14.8 126.5)">
    <use xlink:href="#o"/>
    <use xlink:href="#p" x="60.3"/>
    <use xlink:href="#q" x="99.3"/>
    <use xlink:href="#r" x="167.8"/>
    <use xlink:href="#i" x="251.6"/>
    <use xlink:href="#s" x="309.5"/>
  </g>
  <path fill="none" stroke="#000" stroke-linecap="square" stroke-linejoin="round" d="M49 16.1h227.5m0 184.3V16.1M49 200.4h227.5m-227.5 0V16.1"/>
  <use xlink:href="#b" x="211.1" y="34.7" fill="orange" stroke="#000" stroke-linejoin="round" stroke-width=".5"/>
  <defs>
    <path id="t" d="M5-1.7q0-1.5 1.4-2.8l28.1-27.6-9.9-27.8q-1.2-3.2-2.5-5-1.3-1.9-3.7-1.9-1.1 0-1.1-1.3 0-.6.5-1 .4-.3 1-.3 10.5 0 12.7 6.2L51.8-6.5q1.3 4.3 2.7 5.7l.5 1q0 1-.8 1h-5.4q-2.5-.8-4-4.4l-9.1-25.6L11.5-.4Q9.7 1.3 8.3 1.3 7 1.3 6 .4 5-.4 5-1.7"/>
    <path id="u" d="M7.5-13.3q-.8 0-1.4-.6-.5-.6-.5-1.4 0-.8.5-1.4.6-.6 1.4-.6h62.8q.7 0 1.3.6.5.6.5 1.4 0 .8-.5 1.4-.6.6-1.3.6zm0-19.4q-.8 0-1.4-.6-.5-.6-.5-1.4 0-.8.5-1.4.6-.6 1.4-.6h62.8q.7 0 1.3.6.5.6.5 1.4 0 .8-.5 1.4-.6.6-1.3.6z"/>
    <path id="v" d="M9.3 0v-3.5q12.5 0 12.5-3.2v-52.5q-5.2 2.5-13.1 2.5v-3.5q12.3 0 18.5-6.4h1.4q.4 0 .7.3.3.2.3.6v59q0 3.2 12.5 3.2V0z"/>
  </defs>
  <g transform="translate(225.5 40.7)">
    <use xlink:href="#t" transform="matrix(.144 0 0 .144 0 -1)"/>
    <use xlink:href="#u" transform="matrix(.144 0 0 .144 11 -1)"/>
    <use xlink:href="#v" transform="matrix(.144 0 0 .144 23 -1)"/>
  </g>
  <use xlink:href="#b" x="211.1" y="55.4" fill="purple" stroke="#000" stroke-linejoin="round" stroke-width=".5"/>
  <defs>
    <path id="w" d="M2.8-16.5V-20l30.9-46.1q.3-.5 1-.5h1.5q1.1 0 1.1 1.1V-20h9.8v3.5h-9.8v9.8q0 2 3 2.6 2.9.6 6.7.6V0H19.5v-3.5q3.8 0 6.8-.6 2.9-.5 2.9-2.6v-9.8zM6-20h23.7v-35.4z"/>
  </defs>
  <g transform="translate(225.5 61.5)">
    <use xlink:href="#t" transform="matrix(.144 0 0 .144 0 -1)"/>
    <use xlink:href="#u" transform="matrix(.144 0 0 .144 11 -1)"/>
    <use xlink:href="#w" transform="matrix(.144 0 0 .144 23 -1)"/>
  </g>
  <use xlink:href="#b" x="211.1" y="76.2" fill="#add8e6" stroke="#000" stroke-linejoin="round" stroke-width=".5"/>
  <defs>
    <path id="x" d="M25 2.2q-12.3 0-16.7-10Q4-18 4-31.9q0-8.8 1.6-16.4 1.6-7.7 6.3-13 4.7-5.4 13.2-5.4 6.6 0 10.8 3.2 4.2 3.2 6.4 8.4 2.2 5 3 10.9.8 5.8.8 12.2 0 8.6-1.6 16.1Q42.8-8.3 38.2-3 33.5 2.2 25 2.2m0-2.6q5.6 0 8.3-5.7 2.7-5.7 3.4-12.7.6-6.9.6-14.7 0-7.5-.6-13.9-.7-6.3-3.4-11.5Q30.6-64 25-64q-5.7 0-8.4 5.2-2.7 5.1-3.4 11.5-.6 6.3-.6 13.8 0 5.6.3 10.5.2 5 1.4 10.2 1.2 5.2 3.8 8.8Q20.7-.4 25-.4"/>
  </defs>
  <g transform="translate(225.5 82.2)">
    <use xlink:href="#t" transform="matrix(.144 0 0 .144 0 -1)"/>
    <use xlink:href="#u" transform="matrix(.144 0 0 .144 11 -1)"/>
    <use xlink:href="#v" transform="matrix(.144 0 0 .144 23 -1)"/>
    <use xlink:href="#x" transform="matrix(.144 0 0 .144 30.2 -1)"/>
  </g>
</svg>
