<svg xmlns="http://www.w3.org/2000/svg" viewBox="0 0 320 320">
    <circle cx="160" cy="160" r="160" fill="#022854"/>
    <g fill="#fff" stroke="#fff" shape-rendering="geometricPrecision" stroke-width="2">
        <text x="90" y="230" font-size="190">V</text>
        <path d="M262.46 160.49c0-3.22-.15-6.47-.45-9.67a.6.6 0 0 0-.65-.53l-.89.09a.58.58 0 0 0-.52.64c.29 3.13.44 6.32.44 9.47 0 55.48-45.14 100.62-100.62 100.62-55.48 0-100.62-45.14-100.62-100.63 0-26.1 9.95-50.84 28.03-69.67a100.11 100.11 0 0 1 67.59-30.82.6.6 0 0 0 .56-.61l-.04-.9a.6.6 0 0 0-.62-.56 102.2 102.2 0 0 0-68.98 31.46 102.2 102.2 0 0 0-28.61 71.1c0 56.63 46.07 102.7 102.69 102.7s102.69-46.07 102.69-102.7z"/>
        <path d="M160.01 25.43c-35.94 0-69.74 14-95.15 39.4A133.69 133.69 0 0 0 25.44 160a133.7 133.7 0 0 0 24.1 76.88.6.6 0 0 0 .83.15l.72-.51a.58.58 0 0 0 .14-.82 131.64 131.64 0 0 1-23.73-76.52 132.72 132.72 0 0 1 39.99-94.03 131.61 131.61 0 0 1 92.6-37.64 132.46 132.46 0 0 1 93.6 38.8 131.66 131.66 0 0 1 38.81 94.16 132.35 132.35 0 0 1-38.81 93.24A131.62 131.62 0 0 1 160 292.5c-3.92 0-7.87-.16-11.76-.5a.6.6 0 0 0-.64.53l-.08.88a.6.6 0 0 0 .54.65c3.95.35 7.96.52 11.94.52 35.94 0 69.74-14 95.15-39.41 25.42-25.42 39.41-59.21 39.41-95.16s-14-69.73-39.41-95.15a133.56 133.56 0 0 0-95.14-39.44z"/>
    </g>
</svg>
